<?xml version="1.0" standalone="no"?>
<!DOCTYPE svg PUBLIC "-//W3C//DTD SVG 1.1//EN" "http://www.w3.org/Graphics/SVG/1.1/DTD/svg11.dtd" >
<svg>
<metadata>
Created by FontForge 20110222 at Fri Aug 23 08:08:19 2013
 By Orthosie Webhosting
Copyright (C) 2004, 2009 Hoefler &#38; Frere-Jones. http://www.typography.com
</metadata>
<defs>
<font id="TungstenSemibold" horiz-adv-x="500" >
  <font-face 
    font-family="TungstenSemibold"
    font-weight="375"
    font-stretch="normal"
    units-per-em="1000"
    panose-1="0 0 0 0 0 0 0 0 0 0"
    ascent="800"
    descent="-200"
    x-height="549"
    cap-height="700"
    bbox="-25 -221 644 874"
    underline-thickness="50"
    underline-position="-50"
    unicode-range="U+0020-FB04"
  />
<missing-glyph 
d="M0 -200v1000h500v-1000h-500zM71 750l179 -390l179 390h-358zM50 -76l172 376l-172 376v-752zM450 676l-172 -376l172 -376v752zM250 240l-179 -390h358z" />
    <glyph glyph-name="f_f" unicode="ff" horiz-adv-x="413" 
d="M47 549v52q0 109 109 109h56v-87h-36q-28 0 -28 -28v-46h56v-88h-56v-461h-101v461h-31v88h31zM245 549v52q0 109 109 109h56v-87h-36q-28 0 -28 -28v-46h61v-88h-61v-461h-101v461h-32v88h32z" />
    <glyph glyph-name="fi" unicode="fi" horiz-adv-x="379" 
d="M243 595v98h105v-98h-105zM245 0v549h101v-549h-101zM47 549v52q0 109 109 109h56v-87h-36q-28 0 -28 -28v-46h61v-88h-61v-461h-101v461h-31v88h31z" />
    <glyph glyph-name="fl" unicode="fl" horiz-adv-x="379" 
d="M245 0v710h101v-710h-101zM47 549v52q0 109 109 109h56v-87h-36q-28 0 -28 -28v-46h61v-88h-61v-461h-101v461h-31v88h31z" />
    <glyph glyph-name="f_f_i" unicode="ffi" horiz-adv-x="577" 
d="M442 595v98h105v-98h-105zM444 0v549h101v-549h-101zM47 549v52q0 109 109 109h56v-87h-36q-28 0 -28 -28v-46h56v-88h-56v-461h-101v461h-31v88h31zM245 549v52q0 109 109 109h56v-87h-36q-28 0 -28 -28v-46h61v-88h-61v-461h-101v461h-32v88h32z" />
    <glyph glyph-name="f_f_l" unicode="ffl" horiz-adv-x="577" 
d="M47 549v52q0 109 109 109h56v-87h-36q-28 0 -28 -28v-46h56v-88h-56v-461h-101v461h-31v88h31zM245 549v52q0 109 109 109h56v-87h-36q-28 0 -28 -28v-46h61v-88h-61v-461h-101v461h-32v88h32zM444 0v710h101v-710h-101z" />
    <glyph glyph-name=".notdef" 
d="M0 -200v1000h500v-1000h-500zM71 750l179 -390l179 390h-358zM50 -76l172 376l-172 376v-752zM450 676l-172 -376l172 -376v752zM250 240l-179 -390h358z" />
    <glyph glyph-name=".null" horiz-adv-x="0" 
 />
    <glyph glyph-name="nonmarkingreturn" horiz-adv-x="333" 
 />
    <glyph glyph-name="space" unicode=" " horiz-adv-x="127" 
 />
    <glyph glyph-name="exclam" unicode="!" horiz-adv-x="170" 
d="M136 539l-27 -341h-48l-28 341v161h103v-161zM135 133v-133h-100v133h100z" />
    <glyph glyph-name="quotedbl" unicode="&#x22;" horiz-adv-x="261" 
d="M125 700l-41 -268h-66l15 268h92zM250 700l-41 -268h-67l16 268h92z" />
    <glyph glyph-name="numbersign" unicode="#" horiz-adv-x="351" 
d="M288 702v-117l48 13v-111l-48 -13v-182l48 13v-111l-48 -13v-183h-80v162l-65 -17v-145h-80v124l-48 -12v111l48 12v182l-48 -12v111l48 12v176h80v-155l65 17v138h80zM143 436v-182l65 17v182z" />
    <glyph glyph-name="dollar" unicode="$" horiz-adv-x="358" 
d="M215 763v-61q113 -7 113 -127v-125h-103v120q0 41 -39 41h-13q-39 0 -39 -41v-77q0 -35 31 -57l103 -75q35 -25 48.5 -51.5t13.5 -68.5v-115q0 -122 -115 -128v-65h-71v65q-114 6 -114 127v146h102v-141q0 -41 40 -41h15q39 0 39 41v96q0 34 -30 57l-105 76
q-35 25 -48 52t-13 68v95q0 120 113 128v61h72z" />
    <glyph glyph-name="percent" unicode="%" horiz-adv-x="453" 
d="M149 280h-40q-85 0 -85 87v251q0 88 85 88h44q85 0 85 -88v-153l70 237h71l-94 -284q12 2 19 2h40q86 0 86 -87v-251q0 -88 -86 -88h-43q-86 0 -86 88v152l-70 -236h-70l93 283q-6 -1 -19 -1zM140 632h-16q-26 0 -26 -29v-223q0 -29 26 -29h16q25 0 25 29v223
q0 29 -25 29zM329 349h-16q-25 0 -25 -29v-223q0 -29 26 -29h15q26 0 26 29v223q0 29 -26 29z" />
    <glyph glyph-name="ampersand" unicode="&#x26;" horiz-adv-x="435" 
d="M334 0l-40 73q-19 -43 -45 -61t-78 -18h-30q-122 0 -122 122v141q0 78 47 118l39 34l-23 42q-24 45 -24 103v26q0 126 125 126h37q125 0 125 -124v-99h-101v92q0 37 -37 37h-9q-38 0 -38 -37v-24q0 -36 17 -68l106 -197l40 129h102l-78 -234l99 -181h-112zM178 86
q17 0 25.5 9t16.5 31l15 42l-82 152l-4 -3q-28 -24 -28 -63v-131q0 -37 36 -37h21z" />
    <glyph glyph-name="quotesingle" unicode="'" horiz-adv-x="139" 
d="M128 700l-41 -268h-69l15 268h95z" />
    <glyph glyph-name="parenleft" unicode="(" horiz-adv-x="206" 
d="M199 -19l-55 -23q-69 69 -91 130t-22 187v150q0 126 22 187t91 130l55 -23q-54 -75 -70.5 -127.5t-16.5 -165.5v-152q0 -113 16.5 -165.5t70.5 -127.5z" />
    <glyph glyph-name="parenright" unicode=")" horiz-adv-x="206" 
d="M7 719l55 23q69 -69 91 -130t22 -187v-150q0 -126 -22 -187t-91 -130l-55 23q54 75 70.5 127.5t16.5 165.5v152q0 113 -16.5 165.5t-70.5 127.5z" />
    <glyph glyph-name="asterisk" unicode="*" horiz-adv-x="267" 
d="M162 702l-3 -95l91 52h3v-63l-73 -37l73 -37v-63h-3l-90 52l2 -95h-57l2 95l-90 -52h-3v63l72 37l-72 37v63h3l90 -52l-2 95h57z" />
    <glyph glyph-name="plus" unicode="+" horiz-adv-x="313" 
d="M116 208v109h-106v77h106v109h82v-109h106v-77h-106v-109h-82z" />
    <glyph glyph-name="comma" unicode="," horiz-adv-x="151" 
d="M126 133v-82q0 -41 -6.5 -62t-31.5 -56l-23 -34l-41 12l13 27q18 42 23 62h-35v133h101z" />
    <glyph glyph-name="hyphen" unicode="-" horiz-adv-x="213" 
d="M13 331h187v-93h-187v93z" />
    <glyph glyph-name="period" unicode="." horiz-adv-x="151" 
d="M126 133v-133h-101v133h101z" />
    <glyph glyph-name="slash" unicode="/" horiz-adv-x="213" 
d="M211 732l-130 -764h-78l130 764h78z" />
    <glyph glyph-name="zero" unicode="0" horiz-adv-x="373" 
d="M343 124q0 -130 -130 -130h-53q-130 0 -130 130v452q0 130 130 130h53q130 0 130 -130v-452zM237 571q0 41 -40 41h-20q-41 0 -41 -41v-442q0 -41 41 -41h20q40 0 40 41v442z" />
    <glyph glyph-name="one" unicode="1" horiz-adv-x="215" 
d="M176 703v-703h-103v559h-66v78q32 3 51 14t38 36l12 16h68z" />
    <glyph glyph-name="two" unicode="2" horiz-adv-x="350" 
d="M79 265l113 142q28 35 28 67v97q0 41 -39 41h-13q-40 0 -40 -41v-124h-102v129q0 130 129 130h42q129 0 129 -130v-97q0 -38 -11.5 -69t-42.5 -69l-113 -142q-29 -37 -29 -77v-25h196v-97h-302v126q0 39 12 69.5t43 69.5z" />
    <glyph glyph-name="three" unicode="3" horiz-adv-x="359" 
d="M224 129v138q0 41 -39 41h-93v96h91q39 0 39 40v127q0 41 -39 41h-16q-40 0 -40 -41v-92h-102v97q0 130 130 130h43q130 0 130 -130v-110q0 -82 -58 -104q60 -17 60 -90v-148q0 -130 -130 -130h-48q-129 0 -129 129v111h102v-105q0 -41 41 -41h17q41 0 41 41z" />
    <glyph glyph-name="four" unicode="4" horiz-adv-x="350" 
d="M14 120v103l140 477h140v-487h50v-93h-50v-120h-96v120h-184zM100 213h98v339z" />
    <glyph glyph-name="five" unicode="5" horiz-adv-x="358" 
d="M332 337v-213q0 -130 -129 -130h-45q-128 0 -128 129v124h103v-118q0 -41 40 -41h13q40 0 40 41v180q0 44 -37 44q-30 0 -61 -35h-94v382h288v-97h-189l-2 -188q43 36 93 36q49 0 78.5 -30.5t29.5 -83.5z" />
    <glyph glyph-name="six" unicode="6" horiz-adv-x="365" 
d="M136 571v-169q39 21 83 21h5q53 0 83 -32t30 -84v-183q0 -130 -130 -130h-47q-130 0 -130 130v452q0 130 130 130h46q128 0 128 -128v-96h-103v89q0 41 -39 41h-17q-39 0 -39 -41zM136 317v-188q0 -41 39 -41h18q39 0 39 41v157q0 42 -41 42q-31 0 -55 -11z" />
    <glyph glyph-name="seven" unicode="7" horiz-adv-x="295" 
d="M176 603h-165v97h267v-105l-131 -595h-104z" />
    <glyph glyph-name="eight" unicode="8" horiz-adv-x="363" 
d="M160 706h43q130 0 130 -130v-108q0 -82 -58 -104q60 -17 60 -90v-150q0 -130 -130 -130h-47q-130 0 -130 130v150q0 73 60 90q-58 22 -58 104v108q0 130 130 130zM132 272v-145q0 -40 41 -40h18q40 0 40 40v145q0 40 -40 40h-18q-41 0 -41 -40zM174 403h16q40 0 40 41
v129q0 40 -40 40h-16q-41 0 -41 -40v-129q0 -41 41 -41z" />
    <glyph glyph-name="nine" unicode="9" horiz-adv-x="364" 
d="M189 88q39 0 39 41v160q-40 -20 -82 -20h-4q-53 0 -83 32t-30 84v191q0 130 130 130h45q130 0 130 -130v-452q0 -130 -130 -130h-45q-66 0 -97.5 31t-31.5 97v88h103v-81q0 -41 39 -41h17zM228 375v196q0 41 -39 41h-16q-39 0 -39 -41v-165q0 -42 40 -42q32 0 54 11z" />
    <glyph glyph-name="colon" unicode=":" horiz-adv-x="151" 
d="M126 133v-133h-101v133h101zM126 548v-133h-101v133h101z" />
    <glyph glyph-name="semicolon" unicode=";" horiz-adv-x="151" 
d="M126 133v-82q0 -41 -6.5 -62t-31.5 -56l-23 -34l-41 12l13 27q18 42 23 62h-35v133h101zM126 548v-133h-101v133h101z" />
    <glyph glyph-name="less" unicode="&#x3c;" horiz-adv-x="314" 
d="M15 409l276 95v-85l-206 -62l206 -60v-88l-276 94v106z" />
    <glyph glyph-name="equal" unicode="=" horiz-adv-x="314" 
d="M15 467h284v-78h-284v78zM15 322h284v-78h-284v78z" />
    <glyph glyph-name="greater" unicode="&#x3e;" horiz-adv-x="314" 
d="M299 305l-276 -95v85l206 62l-206 60v88l276 -94v-106z" />
    <glyph glyph-name="question" unicode="?" horiz-adv-x="329" 
d="M161 399l21 24q24 27 24 54v94q0 41 -39 41h-13q-40 0 -40 -41v-120h-97v125q0 130 130 130h35q130 0 130 -130v-95q0 -36 -11.5 -60t-44.5 -61l-41 -47q-18 -21 -18 -60v-63h-82v101q0 38 8.5 57.5t37.5 50.5zM206 133v-133h-100v133h100z" />
    <glyph glyph-name="at" unicode="@" horiz-adv-x="498" 
d="M390 30h-34q-52 0 -68 40q-37 -41 -82 -41q-35 0 -54 21t-19 58v109q0 40 14 60.5t49 32.5l84 28v81q0 29 -28 29h-5q-29 0 -29 -29v-60h-80v70q0 94 97 94h30q96 0 96 -94v-340q0 -25 24 -25h6q37 0 37 50v348q0 72 -27.5 101t-92.5 29h-118q-65 0 -92.5 -29t-27.5 -101
v-373q0 -72 27.5 -101t92.5 -29h241v-34h-241q-84 0 -120 37t-36 127v373q0 89 36.5 126.5t119.5 37.5h118q83 0 119.5 -37.5t36.5 -126.5v-349q0 -83 -74 -83zM240 106q17 0 40 14v144l-43 -16q-23 -9 -23 -37v-78q0 -27 26 -27z" />
    <glyph glyph-name="A" unicode="A" horiz-adv-x="367" 
d="M254 701l101 -701h-106l-14 110h-111l-13 -110h-99l100 701h142zM180 555l-44 -350h87z" />
    <glyph glyph-name="B" unicode="B" horiz-adv-x="365" 
d="M275 360q62 -21 62 -101v-129q0 -130 -130 -130h-175v700h173q130 0 130 -130v-103q0 -85 -60 -107zM229 566q0 40 -40 40h-51v-204h47q44 0 44 44v120zM138 311v-217h53q40 0 40 40v133q0 44 -44 44h-49z" />
    <glyph glyph-name="C" unicode="C" horiz-adv-x="371" 
d="M238 287h105v-163q0 -130 -130 -130h-53q-130 0 -130 130v452q0 130 130 130h52q129 0 129 -129v-143h-105v137q0 41 -40 41h-18q-41 0 -41 -41v-442q0 -41 41 -41h20q40 0 40 41v158z" />
    <glyph glyph-name="D" unicode="D" horiz-adv-x="376" 
d="M32 0v700h161q153 0 153 -153v-394q0 -153 -153 -153h-161zM139 606v-512h39q61 0 61 62v388q0 62 -61 62h-39z" />
    <glyph glyph-name="E" unicode="E" horiz-adv-x="297" 
d="M32 700h238v-97h-131v-198h126v-97h-126v-211h133v-97h-240v700z" />
    <glyph glyph-name="F" unicode="F" horiz-adv-x="286" 
d="M32 700h233v-97h-126v-202h121v-97h-121v-304h-107v700z" />
    <glyph glyph-name="G" unicode="G" horiz-adv-x="376" 
d="M243 290h-56v92h160v-258q0 -130 -130 -130h-57q-130 0 -130 130v452q0 130 130 130h56q129 0 129 -129v-113h-105v107q0 41 -40 41h-22q-41 0 -41 -41v-442q0 -41 41 -41h24q41 0 41 41v161z" />
    <glyph glyph-name="H" unicode="H" horiz-adv-x="381" 
d="M139 405h103v295h107v-700h-107v308h-103v-308h-107v700h107v-295z" />
    <glyph glyph-name="I" unicode="I" horiz-adv-x="173" 
d="M140 700v-700h-107v700h107z" />
    <glyph glyph-name="J" unicode="J" horiz-adv-x="243" 
d="M211 700v-570q0 -130 -130 -130h-65v97h47q41 0 41 41v562h107z" />
    <glyph glyph-name="K" unicode="K" horiz-adv-x="364" 
d="M358 0h-115l-104 343v-343h-107v700h107v-338l111 338h112l-120 -344z" />
    <glyph glyph-name="L" unicode="L" horiz-adv-x="274" 
d="M32 700h107v-603h118v-97h-225v700z" />
    <glyph glyph-name="M" unicode="M" horiz-adv-x="519" 
d="M192 700l68 -493l68 493h159v-700h-105v525l-77 -525h-104l-77 527v-527h-92v700h160z" />
    <glyph glyph-name="N" unicode="N" horiz-adv-x="384" 
d="M257 265l-1 435h96v-700h-116l-109 472l1 -472h-96v700h125z" />
    <glyph glyph-name="O" unicode="O" horiz-adv-x="377" 
d="M347 124q0 -130 -130 -130h-57q-130 0 -130 130v452q0 130 130 130h57q130 0 130 -130v-452zM240 571q0 41 -40 41h-22q-41 0 -41 -41v-442q0 -41 41 -41h22q40 0 40 41v442z" />
    <glyph glyph-name="P" unicode="P" horiz-adv-x="351" 
d="M139 254v-254h-107v700h168q130 0 130 -130v-186q0 -130 -130 -130h-61zM223 565q0 41 -40 41h-44v-258h44q40 0 40 41v176z" />
    <glyph glyph-name="Q" unicode="Q" horiz-adv-x="377" 
d="M347 576v-441q0 -83 -53 -110l71 -29l-52 -81l-129 79h-24q-130 0 -130 130v452q0 130 130 130h57q130 0 130 -130zM240 571q0 41 -40 41h-22q-41 0 -41 -41v-442q0 -41 41 -41h22q40 0 40 41v442z" />
    <glyph glyph-name="R" unicode="R" horiz-adv-x="369" 
d="M277 330q33 -9 47.5 -30.5t14.5 -61.5v-238h-107v236q0 45 -45 45h-48v-281h-107v700h176q130 0 130 -130v-132q0 -83 -61 -108zM231 565q0 40 -40 40h-52v-231h48q44 0 44 43v148z" />
    <glyph glyph-name="S" unicode="S" horiz-adv-x="361" 
d="M273 359q35 -25 48.5 -51.5t13.5 -69.5v-114q0 -130 -130 -130h-47q-129 0 -129 129v148h104v-144q0 -40 41 -40h14q41 0 41 40v96q0 35 -30 57l-108 79q-35 25 -48.5 52t-13.5 69v96q0 130 130 130h45q129 0 129 -129v-127h-105v123q0 40 -40 40h-13q-40 0 -40 -40v-78
q0 -36 30 -57z" />
    <glyph glyph-name="T" unicode="T" horiz-adv-x="319" 
d="M213 0h-107v603h-96v97h299v-97h-96v-603z" />
    <glyph glyph-name="U" unicode="U" horiz-adv-x="374" 
d="M343 700v-576q0 -130 -130 -130h-52q-130 0 -130 130v576h107v-571q0 -41 41 -41h17q40 0 40 41v571h107z" />
    <glyph glyph-name="V" unicode="V" horiz-adv-x="361" 
d="M184 184l64 516h101l-103 -701h-131l-103 701h108z" />
    <glyph glyph-name="W" unicode="W" horiz-adv-x="552" 
d="M102 0l-85 700h108l50 -494l54 494h103l54 -493l50 493h98l-85 -700h-126l-47 419l-47 -419h-127z" />
    <glyph glyph-name="X" unicode="X" horiz-adv-x="361" 
d="M346 700l-96 -346l98 -354h-110l-59 251l-63 -251h-103l98 345l-96 355h110l58 -250l60 250h103z" />
    <glyph glyph-name="Y" unicode="Y" horiz-adv-x="345" 
d="M175 405l63 295h103l-115 -455v-245h-107v240l-115 460h110z" />
    <glyph glyph-name="Z" unicode="Z" horiz-adv-x="298" 
d="M175 604h-151v96h255v-105l-155 -499h155v-96h-260v105z" />
    <glyph glyph-name="bracketleft" unicode="[" horiz-adv-x="205" 
d="M197 31v-63h-159v764h159v-63h-80v-638h80z" />
    <glyph glyph-name="backslash" unicode="\" horiz-adv-x="213" 
d="M133 -32l-130 764h78l130 -764h-78z" />
    <glyph glyph-name="bracketright" unicode="]" horiz-adv-x="205" 
d="M7 -32v63h80v638h-80v63h159v-764h-159z" />
    <glyph glyph-name="asciicircum" unicode="^" horiz-adv-x="400" 
d="M235 700l100 -205h-76l-59 125l-59 -125h-76l100 205h70z" />
    <glyph glyph-name="underscore" unicode="_" horiz-adv-x="458" 
d="M-2 -22h462v-78h-462v78z" />
    <glyph glyph-name="grave" unicode="`" 
d="M295 699l37 -110h-71l-67 110h101z" />
    <glyph glyph-name="a" unicode="a" horiz-adv-x="336" 
d="M26 87v111q0 48 17 72.5t60 38.5l105 36v85q0 37 -37 37h-7q-37 0 -37 -37v-68h-95v71q0 122 122 122h32q122 0 122 -122v-433h-99v35q-48 -41 -95 -41h-1q-87 0 -87 93zM156 85q26 0 52 16v159l-55 -21q-17 -8 -23 -17t-6 -28v-78q0 -31 32 -31z" />
    <glyph glyph-name="b" unicode="b" horiz-adv-x="347" 
d="M29 0v710h101v-198q45 43 95 43h1q45 0 69.5 -27t24.5 -76v-355q0 -49 -24.5 -76t-69.5 -27h-1q-51 0 -96 39v-33h-100zM130 445v-341q25 -18 53 -18q36 0 36 34v309q0 34 -36 34q-28 0 -53 -18z" />
    <glyph glyph-name="c" unicode="c" horiz-adv-x="338" 
d="M213 334v93q0 37 -37 37h-12q-36 0 -36 -37v-305q0 -37 36 -37h13q37 0 37 37v111h99v-117q0 -122 -122 -122h-42q-122 0 -122 122v317q0 122 122 122h42q121 0 121 -121v-100h-99z" />
    <glyph glyph-name="d" unicode="d" horiz-adv-x="347" 
d="M318 710v-710h-100v37q-45 -43 -95 -43h-1q-46 0 -70.5 27t-24.5 76v355q0 49 24.5 76t70.5 27h1q49 0 94 -39v194h101zM217 104v341q-25 18 -53 18q-36 0 -36 -34v-309q0 -34 36 -34q28 0 53 18z" />
    <glyph glyph-name="e" unicode="e" horiz-adv-x="336" 
d="M310 235h-183v-114q0 -37 36 -37h13q37 0 37 37v58h97v-63q0 -122 -122 -122h-39q-122 0 -122 122v317q0 122 122 122h39q122 0 122 -122v-198zM127 429v-108h84v108q0 37 -37 37h-11q-36 0 -36 -37z" />
    <glyph glyph-name="f" unicode="f" horiz-adv-x="215" 
d="M47 549v52q0 109 109 109h56v-87h-36q-28 0 -28 -28v-46h61v-88h-61v-461h-101v461h-31v88h31z" />
    <glyph glyph-name="g" unicode="g" horiz-adv-x="347" 
d="M318 549v-546q0 -117 -118 -117h-65q-106 0 -106 105v32h92v-24q0 -33 31 -33h35q31 0 31 33v92q-45 -38 -95 -38h-1q-46 0 -70.5 27t-24.5 76v296q0 49 24.5 76t70.5 27h1q50 0 95 -39v33h100zM217 160v285q-25 18 -53 18q-36 0 -36 -34v-252q0 -34 36 -34q28 0 53 17z
" />
    <glyph glyph-name="h" unicode="h" horiz-adv-x="346" 
d="M29 0v710h101v-197q46 42 95 42h5q88 0 88 -94v-461h-101v431q0 32 -33 32q-25 0 -54 -17v-446h-101z" />
    <glyph glyph-name="i" unicode="i" horiz-adv-x="164" 
d="M29 595v98h105v-98h-105zM31 0v549h101v-549h-101z" />
    <glyph glyph-name="j" unicode="j" horiz-adv-x="165" 
d="M30 595v98h105v-98h-105zM133 549v-556q0 -105 -104 -105h-34v85h9q28 0 28 28v548h101z" />
    <glyph glyph-name="k" unicode="k" horiz-adv-x="331" 
d="M223 549h106l-102 -269l98 -280h-108l-87 273v-273h-101v710h101v-428z" />
    <glyph glyph-name="l" unicode="l" horiz-adv-x="164" 
d="M31 0v710h101v-710h-101z" />
    <glyph glyph-name="m" unicode="m" horiz-adv-x="527" 
d="M315 446v-446h-102v432q0 31 -30 31q-24 0 -53 -17v-446h-101v549h100v-36q47 42 95 42h4q58 0 78 -46q49 46 102 46h4q42 0 64.5 -24t22.5 -69v-462h-101v432q0 31 -31 31q-24 0 -52 -17z" />
    <glyph glyph-name="n" unicode="n" horiz-adv-x="346" 
d="M29 0v549h100v-36q47 42 96 42h5q88 0 88 -94v-461h-101v431q0 32 -33 32q-25 0 -54 -17v-446h-101z" />
    <glyph glyph-name="o" unicode="o" horiz-adv-x="344" 
d="M180 464h-16q-36 0 -36 -37v-305q0 -37 36 -37h16q37 0 37 37v305q0 37 -37 37zM196 -6h-47q-122 0 -122 122v317q0 122 122 122h47q122 0 122 -122v-317q0 -122 -122 -122z" />
    <glyph glyph-name="p" unicode="p" horiz-adv-x="347" 
d="M29 -110v659h100v-37q45 43 96 43h1q45 0 69.5 -27t24.5 -76v-355q0 -49 -24.5 -76t-69.5 -27h-1q-50 0 -95 39v-143h-101zM130 445v-341q25 -18 53 -18q36 0 36 34v309q0 34 -36 34q-28 0 -53 -18z" />
    <glyph glyph-name="q" unicode="q" horiz-adv-x="347" 
d="M318 549v-659h-101v147q-45 -43 -94 -43h-1q-46 0 -70.5 27t-24.5 76v355q0 49 24.5 76t70.5 27h1q50 0 95 -39v33h100zM217 104v341q-25 18 -53 18q-36 0 -36 -34v-309q0 -34 36 -34q28 0 53 18z" />
    <glyph glyph-name="r" unicode="r" horiz-adv-x="225" 
d="M29 0v549h100v-59q18 34 37 49t48 15v-112q-53 -4 -84 -32v-410h-101z" />
    <glyph glyph-name="s" unicode="s" horiz-adv-x="330" 
d="M206 354v77q0 36 -36 36h-11q-35 0 -35 -36v-43q0 -27 24 -42l95 -60q34 -21 48 -43.5t14 -60.5v-66q0 -122 -122 -122h-36q-121 0 -121 121v83h98v-80q0 -36 35 -36h13q36 0 36 36v46q0 27 -24 43l-96 59q-33 21 -47 43.5t-14 60.5v63q0 122 122 122h34q121 0 121 -121
v-80h-98z" />
    <glyph glyph-name="t" unicode="t" horiz-adv-x="215" 
d="M151 461v-461h-101v461h-36v88h36v90h101v-90h53v-88h-53z" />
    <glyph glyph-name="u" unicode="u" horiz-adv-x="346" 
d="M317 549v-549h-100v36q-46 -42 -96 -42h-4q-89 0 -89 94v461h101v-431q0 -32 33 -32q26 0 54 17v446h101z" />
    <glyph glyph-name="v" unicode="v" horiz-adv-x="329" 
d="M226 0h-123l-92 549h102l54 -390l54 390h96z" />
    <glyph glyph-name="w" unicode="w" horiz-adv-x="483" 
d="M94 0l-82 549h100l39 -355l48 355h91l48 -354l39 354h94l-82 -549h-103l-43 319l-46 -319h-103z" />
    <glyph glyph-name="x" unicode="x" horiz-adv-x="315" 
d="M102 0h-99l90 266l-88 283h106l48 -181l52 181h99l-89 -267l91 -282h-106l-50 182z" />
    <glyph glyph-name="y" unicode="y" horiz-adv-x="327" 
d="M181 -110h-97l29 131l-104 528h101l53 -334l59 334h97z" />
    <glyph glyph-name="z" unicode="z" horiz-adv-x="277" 
d="M157 461h-136v88h240v-88l-142 -373h142v-88h-245v88z" />
    <glyph glyph-name="braceleft" unicode="{" horiz-adv-x="257" 
d="M82 278q0 17 -8.5 24.5t-27.5 11.5l-34 7v60l34 6q19 4 27.5 11.5t8.5 24.5v72q0 97 19.5 139.5t93.5 107.5l55 -23q-59 -70 -72.5 -105t-13.5 -118v-41q0 -81 -60 -104q60 -17 60 -90v-57q0 -83 13.5 -118t72.5 -105l-55 -23q-74 65 -93.5 107.5t-19.5 139.5v73z" />
    <glyph glyph-name="bar" unicode="|" horiz-adv-x="248" 
d="M161 763v-830h-74v830h74z" />
    <glyph glyph-name="braceright" unicode="}" horiz-adv-x="257" 
d="M175 278v-73q0 -97 -19.5 -139.5t-93.5 -107.5l-55 23q59 70 72.5 105t13.5 118v57q0 73 60 90q-60 23 -60 104v41q0 83 -13.5 118t-72.5 105l55 23q74 -65 93.5 -107.5t19.5 -139.5v-72q0 -17 8.5 -24.5t27.5 -11.5l34 -6v-60l-34 -7q-19 -4 -27.5 -11.5t-8.5 -24.5z
" />
    <glyph glyph-name="asciitilde" unicode="~" horiz-adv-x="399" 
d="M185 395l47 -32q14 -10 24 -10h1q10 0 10 12v45h59v-69q0 -50 -48 -50h-11q-31 0 -52 15l-46 32q-15 10 -25 10h-1q-10 0 -10 -12v-45h-59v69q0 50 48 50h11q31 0 52 -15z" />
    <glyph glyph-name="uni00A0" unicode="&#xa0;" horiz-adv-x="153" 
 />
    <glyph glyph-name="exclamdown" unicode="&#xa1;" horiz-adv-x="170" 
d="M33 161l27 341h48l28 -341v-161h-103v161zM34 567v133h100v-133h-100z" />
    <glyph glyph-name="cent" unicode="&#xa2;" horiz-adv-x="335" 
d="M209 415v98q0 37 -36 37h-9q-37 0 -37 -37v-322q0 -37 37 -37h10q36 0 36 37v116h97v-120q0 -111 -102 -122v-68h-72v68q-104 9 -104 122v330q0 112 104 121v65h72v-65q101 -11 101 -121v-102h-97z" />
    <glyph glyph-name="sterling" unicode="&#xa3;" horiz-adv-x="381" 
d="M18 273v95h41v208q0 130 130 130h39q129 0 129 -129v-114h-102v108q0 41 -40 41h-11q-39 0 -39 -41v-203h126v-95h-126v-176h194v-97h-341v97h41v176h-41z" />
    <glyph glyph-name="yen" unicode="&#xa5;" horiz-adv-x="342" 
d="M26 293h83l-103 407h108l59 -289l62 289h101l-104 -407h84v-61h-93v-41h93v-62h-93v-129h-104v129h-93v62h93v41h-93v61z" />
    <glyph glyph-name="section" unicode="&#xa7;" horiz-adv-x="359" 
d="M327 333v-17l-222 89q-41 17 -57 39t-16 68v64q0 130 130 130h37q129 0 129 -129v-85h-100v82q0 40 -41 40h-13q-40 0 -40 -40v-68q0 -28 31 -40l100 -41q39 -16 50.5 -34.5t11.5 -57.5zM32 367v17l222 -89q41 -17 57 -39t16 -68v-64q0 -130 -130 -130h-37
q-129 0 -129 129v85h100v-82q0 -40 41 -40h12q41 0 41 40v68q0 28 -31 40l-100 41q-39 16 -50.5 34.5t-11.5 57.5z" />
    <glyph glyph-name="dieresis" unicode="&#xa8;" 
d="M270 589v103h83v-103h-83zM230 692v-103h-83v103h83z" />
    <glyph glyph-name="copyright" unicode="&#xa9;" horiz-adv-x="493" 
d="M281 302h80v-121q0 -91 -96 -91h-34q-95 0 -95 91v339q0 91 95 91h32q96 0 96 -91v-107h-80v97q0 26 -26 26h-9q-27 0 -27 -26v-318q0 -27 27 -27h10q27 0 27 27v110zM459 542v-384q0 -87 -37.5 -125.5t-118.5 -38.5h-113q-81 0 -118.5 38.5t-37.5 125.5v384
q0 87 37.5 125.5t118.5 38.5h113q81 0 118.5 -38.5t37.5 -125.5zM433 158v384q0 74 -31.5 107t-98.5 33h-113q-67 0 -98.5 -33t-31.5 -107v-384q0 -74 31.5 -107t98.5 -33h113q67 0 98.5 33t31.5 107z" />
    <glyph glyph-name="ordfeminine" unicode="&#xaa;" horiz-adv-x="227" 
d="M28 467v47q0 26 9.5 40.5t32.5 21.5l69 21v36q0 22 -22 22h-7q-23 0 -23 -22v-27h-56v33q0 67 70 67h26q71 0 71 -67v-224h-58v23q-31 -26 -59 -26h-2q-51 0 -51 55zM105 466q19 0 34 12v69l-38 -12q-15 -5 -15 -25v-25q0 -19 19 -19z" />
    <glyph glyph-name="guillemotleft" unicode="&#xab;" horiz-adv-x="261" 
d="M4 284l62 160h75l-51 -160l51 -159h-74zM121 284l54 160h75l-43 -160l43 -159h-73z" />
    <glyph glyph-name="registered" unicode="&#xae;" horiz-adv-x="296" 
d="M192 511q26 -7 26 -32v-81h-47v76q0 16 -19 16h-21v-92h-48v246h80q55 0 55 -45v-51q0 -29 -26 -37zM171 590q0 13 -17 13h-23v-73h21q19 0 19 14v46zM255 432v178q0 41 -18 59t-59 18h-60q-41 0 -59 -18t-18 -59v-178q0 -42 18 -60t59 -18h60q41 0 59 18t18 60zM275 610
v-178q0 -52 -23 -74.5t-74 -22.5h-60q-51 0 -74 22.5t-23 74.5v178q0 51 23 73.5t74 22.5h60q51 0 74 -22.5t23 -73.5z" />
    <glyph glyph-name="macron" unicode="&#xaf;" 
d="M144 672h212v-76h-212v76z" />
    <glyph glyph-name="degree" unicode="&#xb0;" horiz-adv-x="257" 
d="M139 636h-20q-26 0 -26 -29v-168q0 -28 26 -28h20q26 0 26 28v168q0 29 -26 29zM156 341h-54q-38 0 -60 22.5t-22 62.5v196q0 40 21.5 62t60.5 22h54q38 0 59.5 -22t21.5 -62v-196q0 -40 -21.5 -62.5t-59.5 -22.5z" />
    <glyph glyph-name="plusminus" unicode="&#xb1;" horiz-adv-x="314" 
d="M117 271v109h-106v77h106v109h81v-109h107v-77h-107v-109h-81zM10 227h294v-78h-294v78z" />
    <glyph glyph-name="acute" unicode="&#xb4;" 
d="M188 589l37 110h101l-67 -110h-71z" />
    <glyph glyph-name="paragraph" unicode="&#xb6;" horiz-adv-x="346" 
d="M314 0h-69v630h-56v-630h-3q-156 6 -156 171v357q0 172 172 172h112v-700z" />
    <glyph glyph-name="periodcentered" unicode="&#xb7;" horiz-adv-x="151" 
d="M126 366v-133h-101v133h101z" />
    <glyph glyph-name="cedilla" unicode="&#xb8;" 
d="M304 0l-20 -98h-89l45 98h64z" />
    <glyph glyph-name="ordmasculine" unicode="&#xba;" horiz-adv-x="234" 
d="M125 652h-15q-22 0 -22 -23v-140q0 -23 22 -23h15q22 0 22 23v140q0 23 -22 23zM135 412h-36q-70 0 -70 71v152q0 71 70 71h36q71 0 71 -71v-152q0 -71 -71 -71z" />
    <glyph glyph-name="guillemotright" unicode="&#xbb;" horiz-adv-x="261" 
d="M194 444l62 -160l-63 -159h-74l51 159l-51 160h75zM85 444l54 -160l-56 -159h-73l43 159l-43 160h75z" />
    <glyph glyph-name="questiondown" unicode="&#xbf;" horiz-adv-x="329" 
d="M168 301l-21 -24q-24 -27 -24 -54v-94q0 -41 39 -41h13q40 0 40 41v120h97v-125q0 -130 -130 -130h-35q-130 0 -130 130v95q0 36 11.5 60t44.5 61l41 47q18 21 18 60v63h82v-101q0 -38 -8.5 -57.5t-37.5 -50.5zM123 567v133h100v-133h-100z" />
    <glyph glyph-name="Agrave" unicode="&#xc0;" horiz-adv-x="367" 
d="M254 701l101 -701h-106l-14 110h-111l-13 -110h-99l100 701h142zM180 555l-44 -350h87zM178 830l44 -89h-73l-74 89h103z" />
    <glyph glyph-name="Aacute" unicode="&#xc1;" horiz-adv-x="367" 
d="M254 701l101 -701h-106l-14 110h-111l-13 -110h-99l100 701h142zM180 555l-44 -350h87zM147 741l43 89h101l-73 -89h-71z" />
    <glyph glyph-name="Acircumflex" unicode="&#xc2;" horiz-adv-x="367" 
d="M254 701l101 -701h-106l-14 110h-111l-13 -110h-99l100 701h142zM180 555l-44 -350h87zM225 838l70 -97h-66l-45 39l-45 -39h-66l70 97h82z" />
    <glyph glyph-name="Atilde" unicode="&#xc3;" horiz-adv-x="367" 
d="M254 701l101 -701h-106l-14 110h-111l-13 -110h-99l100 701h142zM119 840h9q26 0 47 -12l31 -19q13 -7 22 -7q10 0 10 12v26h59v-49q0 -50 -48 -50h-9q-27 0 -46 12l-32 18q-13 7 -22 7q-10 0 -10 -12v-25h-59v48q0 51 48 51zM180 555l-44 -350h87z" />
    <glyph glyph-name="Adieresis" unicode="&#xc4;" horiz-adv-x="367" 
d="M254 701l101 -701h-106l-14 110h-111l-13 -110h-99l100 701h142zM180 555l-44 -350h87zM204 741v82h85v-82h-85zM164 823v-82h-85v82h85z" />
    <glyph glyph-name="Aring" unicode="&#xc5;" horiz-adv-x="367" 
d="M284 712v-5q0 -33 -25 -46l96 -661h-106l-14 110h-111l-13 -110h-99l96 661q-26 13 -26 46v5q0 53 65 53h72q65 0 65 -53zM180 556l-44 -351h87zM258 706v6q0 30 -40 30h-69q-41 0 -41 -30v-6q0 -30 41 -30h69q40 0 40 30z" />
    <glyph glyph-name="AE" unicode="&#xc6;" horiz-adv-x="477" 
d="M451 700v-97h-131v-198h126v-97h-126v-211h133v-97h-240v110h-84l-18 -110h-99l131 700h308zM145 205h68v410z" />
    <glyph glyph-name="Ccedilla" unicode="&#xc7;" horiz-adv-x="371" 
d="M238 287h105v-163q0 -124 -119 -130l-19 -92h-89l42 92q-128 1 -128 130v452q0 130 130 130h52q129 0 129 -129v-143h-105v137q0 41 -40 41h-18q-41 0 -41 -41v-442q0 -41 41 -41h20q40 0 40 41v158z" />
    <glyph glyph-name="Egrave" unicode="&#xc8;" horiz-adv-x="297" 
d="M146 830l44 -89h-73l-74 89h103zM32 700h238v-97h-131v-198h126v-97h-126v-211h133v-97h-240v700z" />
    <glyph glyph-name="Eacute" unicode="&#xc9;" horiz-adv-x="297" 
d="M115 741l43 89h101l-73 -89h-71zM32 700h238v-97h-131v-198h126v-97h-126v-211h133v-97h-240v700z" />
    <glyph glyph-name="Ecircumflex" unicode="&#xca;" horiz-adv-x="297" 
d="M32 700h238v-97h-131v-198h126v-97h-126v-211h133v-97h-240v700zM193 838l70 -97h-66l-45 39l-45 -39h-66l70 97h82z" />
    <glyph glyph-name="Edieresis" unicode="&#xcb;" horiz-adv-x="297" 
d="M172 741v82h85v-82h-85zM132 823v-82h-85v82h85zM32 700h238v-97h-131v-198h126v-97h-126v-211h133v-97h-240v700z" />
    <glyph glyph-name="Igrave" unicode="&#xcc;" horiz-adv-x="173" 
d="M140 700v-700h-107v700h107zM81 830l44 -89h-73l-74 89h103z" />
    <glyph glyph-name="Iacute" unicode="&#xcd;" horiz-adv-x="173" 
d="M140 700v-700h-107v700h107zM50 741l43 89h101l-73 -89h-71z" />
    <glyph glyph-name="Icircumflex" unicode="&#xce;" horiz-adv-x="173" 
d="M140 700v-700h-107v700h107zM128 838l70 -97h-66l-45 39l-45 -39h-66l70 97h82z" />
    <glyph glyph-name="Idieresis" unicode="&#xcf;" horiz-adv-x="173" 
d="M140 700v-700h-107v700h107zM107 741v82h85v-82h-85zM67 823v-82h-85v82h85z" />
    <glyph glyph-name="Eth" unicode="&#xd0;" horiz-adv-x="388" 
d="M44 0v312h-42v86h42v302h161q153 0 153 -153v-394q0 -153 -153 -153h-161zM151 606v-208h60v-86h-60v-218h39q61 0 61 62v388q0 62 -61 62h-39z" />
    <glyph glyph-name="Ntilde" unicode="&#xd1;" horiz-adv-x="384" 
d="M257 265l-1 435h96v-700h-116l-109 472l1 -472h-96v700h125zM129 840h9q26 0 47 -12l31 -19q13 -7 22 -7q10 0 10 12v26h59v-49q0 -50 -48 -50h-9q-27 0 -46 12l-32 18q-13 7 -22 7q-10 0 -10 -12v-25h-59v48q0 51 48 51z" />
    <glyph glyph-name="Ograve" unicode="&#xd2;" horiz-adv-x="377" 
d="M183 830l44 -89h-73l-74 89h103zM347 124q0 -130 -130 -130h-57q-130 0 -130 130v452q0 130 130 130h57q130 0 130 -130v-452zM240 571q0 41 -40 41h-22q-41 0 -41 -41v-442q0 -41 41 -41h22q40 0 40 41v442z" />
    <glyph glyph-name="Oacute" unicode="&#xd3;" horiz-adv-x="377" 
d="M152 741l43 89h101l-73 -89h-71zM347 124q0 -130 -130 -130h-57q-130 0 -130 130v452q0 130 130 130h57q130 0 130 -130v-452zM240 571q0 41 -40 41h-22q-41 0 -41 -41v-442q0 -41 41 -41h22q40 0 40 41v442z" />
    <glyph glyph-name="Ocircumflex" unicode="&#xd4;" horiz-adv-x="377" 
d="M347 124q0 -130 -130 -130h-57q-130 0 -130 130v452q0 130 130 130h57q130 0 130 -130v-452zM240 571q0 41 -40 41h-22q-41 0 -41 -41v-442q0 -41 41 -41h22q40 0 40 41v442zM230 838l70 -97h-66l-45 39l-45 -39h-66l70 97h82z" />
    <glyph glyph-name="Otilde" unicode="&#xd5;" horiz-adv-x="377" 
d="M347 124q0 -130 -130 -130h-57q-130 0 -130 130v452q0 130 130 130h57q130 0 130 -130v-452zM240 571q0 41 -40 41h-22q-41 0 -41 -41v-442q0 -41 41 -41h22q40 0 40 41v442zM124 840h9q26 0 47 -12l31 -19q13 -7 22 -7q10 0 10 12v26h59v-49q0 -50 -48 -50h-9
q-27 0 -46 12l-32 18q-13 7 -22 7q-10 0 -10 -12v-25h-59v48q0 51 48 51z" />
    <glyph glyph-name="Odieresis" unicode="&#xd6;" horiz-adv-x="377" 
d="M209 741v82h85v-82h-85zM169 823v-82h-85v82h85zM347 124q0 -130 -130 -130h-57q-130 0 -130 130v452q0 130 130 130h57q130 0 130 -130v-452zM240 571q0 41 -40 41h-22q-41 0 -41 -41v-442q0 -41 41 -41h22q40 0 40 41v442z" />
    <glyph glyph-name="multiply" unicode="&#xd7;" horiz-adv-x="314" 
d="M239 216l-83 83l-83 -83l-55 56l82 82l-82 83l57 58l83 -83l83 83l55 -56l-83 -83l83 -82z" />
    <glyph glyph-name="Oslash" unicode="&#xd8;" horiz-adv-x="377" 
d="M347 124q0 -130 -130 -130h-57q-130 0 -130 130v452q0 130 130 130h57q130 0 130 -130v-452zM241 129l1 332l-99 -359q11 -14 35 -14h21q42 0 42 41zM137 571l-3 -334l100 360q-9 15 -34 15h-22q-41 0 -41 -41z" />
    <glyph glyph-name="Ugrave" unicode="&#xd9;" horiz-adv-x="374" 
d="M181 830l44 -89h-73l-74 89h103zM343 700v-576q0 -130 -130 -130h-52q-130 0 -130 130v576h107v-571q0 -41 41 -41h17q40 0 40 41v571h107z" />
    <glyph glyph-name="Uacute" unicode="&#xda;" horiz-adv-x="374" 
d="M150 741l43 89h101l-73 -89h-71zM343 700v-576q0 -130 -130 -130h-52q-130 0 -130 130v576h107v-571q0 -41 41 -41h17q40 0 40 41v571h107z" />
    <glyph glyph-name="Ucircumflex" unicode="&#xdb;" horiz-adv-x="374" 
d="M343 700v-576q0 -130 -130 -130h-52q-130 0 -130 130v576h107v-571q0 -41 41 -41h17q40 0 40 41v571h107zM228 838l70 -97h-66l-45 39l-45 -39h-66l70 97h82z" />
    <glyph glyph-name="Udieresis" unicode="&#xdc;" horiz-adv-x="374" 
d="M207 741v82h85v-82h-85zM167 823v-82h-85v82h85zM343 700v-576q0 -130 -130 -130h-52q-130 0 -130 130v576h107v-571q0 -41 41 -41h17q40 0 40 41v571h107z" />
    <glyph glyph-name="Yacute" unicode="&#xdd;" horiz-adv-x="345" 
d="M175 405l63 295h103l-115 -455v-245h-107v240l-115 460h110zM138 741l43 89h101l-73 -89h-71z" />
    <glyph glyph-name="Thorn" unicode="&#xde;" horiz-adv-x="351" 
d="M139 130v-130h-107v700h107v-125h61q130 0 130 -130v-185q0 -130 -130 -130h-61zM223 441q0 40 -40 40h-44v-257h44q40 0 40 40v177z" />
    <glyph glyph-name="germandbls" unicode="&#xdf;" horiz-adv-x="349" 
d="M323 278v-156q0 -122 -122 -122h-41v91h27q36 0 36 37v149q0 39 -38 39h-25v92h23q38 0 38 38v133q0 39 -38 39h-14q-39 0 -39 -39v-579h-101v583q0 127 127 127h38q127 0 127 -127v-111q0 -82 -58 -104q60 -17 60 -90z" />
    <glyph glyph-name="agrave" unicode="&#xe0;" horiz-adv-x="336" 
d="M26 87v111q0 48 17 72.5t60 38.5l105 36v85q0 37 -37 37h-7q-37 0 -37 -37v-68h-95v71q0 122 122 122h32q122 0 122 -122v-433h-99v35q-48 -41 -95 -41h-1q-87 0 -87 93zM156 85q26 0 52 16v159l-55 -21q-17 -8 -23 -17t-6 -28v-78q0 -31 32 -31zM175 699l37 -110h-71
l-67 110h101z" />
    <glyph glyph-name="aacute" unicode="&#xe1;" horiz-adv-x="336" 
d="M26 87v111q0 48 17 72.5t60 38.5l105 36v85q0 37 -37 37h-7q-37 0 -37 -37v-68h-95v71q0 122 122 122h32q122 0 122 -122v-433h-99v35q-48 -41 -95 -41h-1q-87 0 -87 93zM156 85q26 0 52 16v159l-55 -21q-17 -8 -23 -17t-6 -28v-78q0 -31 32 -31zM138 589l37 110h101
l-67 -110h-71z" />
    <glyph glyph-name="acircumflex" unicode="&#xe2;" horiz-adv-x="336" 
d="M26 87v111q0 48 17 72.5t60 38.5l105 36v85q0 37 -37 37h-7q-37 0 -37 -37v-68h-95v71q0 122 122 122h32q122 0 122 -122v-433h-99v35q-48 -41 -95 -41h-1q-87 0 -87 93zM216 699l66 -110h-66l-41 49l-41 -49h-66l66 110h82zM156 85q26 0 52 16v159l-55 -21
q-17 -8 -23 -17t-6 -28v-78q0 -31 32 -31z" />
    <glyph glyph-name="atilde" unicode="&#xe3;" horiz-adv-x="336" 
d="M26 87v111q0 48 17 72.5t60 38.5l105 36v85q0 37 -37 37h-7q-37 0 -37 -37v-68h-95v71q0 122 122 122h32q122 0 122 -122v-433h-99v35q-48 -41 -95 -41h-1q-87 0 -87 93zM112 699h8q27 0 48 -15l27 -19q15 -11 22 -11q10 0 10 12v33h59v-59q0 -51 -48 -51h-8
q-26 0 -47 15l-28 20q-16 10 -22 10q-10 0 -10 -12v-33h-59v59q0 51 48 51zM156 85q26 0 52 16v159l-55 -21q-17 -8 -23 -17t-6 -28v-78q0 -31 32 -31z" />
    <glyph glyph-name="adieresis" unicode="&#xe4;" horiz-adv-x="336" 
d="M26 87v111q0 48 17 72.5t60 38.5l105 36v85q0 37 -37 37h-7q-37 0 -37 -37v-68h-95v71q0 122 122 122h32q122 0 122 -122v-433h-99v35q-48 -41 -95 -41h-1q-87 0 -87 93zM156 85q26 0 52 16v159l-55 -21q-17 -8 -23 -17t-6 -28v-78q0 -31 32 -31zM195 589v103h83v-103
h-83zM155 692v-103h-83v103h83z" />
    <glyph glyph-name="aring" unicode="&#xe5;" horiz-adv-x="336" 
d="M26 87v111q0 48 17 72.5t60 38.5l105 36v85q0 37 -37 37h-7q-37 0 -37 -37v-68h-95v71q0 122 122 122h32q122 0 122 -122v-433h-99v35q-48 -41 -95 -41h-1q-87 0 -87 93zM261 647v-6q0 -55 -65 -55h-42q-65 0 -65 55v6q0 55 65 55h42q65 0 65 -55zM156 85q26 0 52 16v159
l-55 -21q-17 -8 -23 -17t-6 -28v-78q0 -31 32 -31zM236 641v6q0 33 -42 33h-38q-42 0 -42 -33v-6q0 -33 43 -33h37q42 0 42 33z" />
    <glyph glyph-name="ae" unicode="&#xe6;" horiz-adv-x="517" 
d="M339 555h30q122 0 122 -122v-198h-183v-114q0 -37 36 -37h13q37 0 37 37v62h97v-67q0 -122 -122 -122h-39q-76 0 -105 47l-11 -8q-22 -14 -33 -20.5t-29.5 -12.5t-37.5 -6h-1q-87 0 -87 93v115q0 48 17 72t60 38l105 36v82q0 37 -37 37h-7q-37 0 -37 -37v-68h-95v71
q0 122 122 122h23q53 0 81 -33q26 33 81 33zM156 85q26 0 52 16v162l-55 -21q-16 -7 -22.5 -16.5t-6.5 -28.5v-81q0 -31 32 -31zM308 429v-108h84v108q0 37 -37 37h-11q-36 0 -36 -37z" />
    <glyph glyph-name="ccedilla" unicode="&#xe7;" horiz-adv-x="338" 
d="M213 334v93q0 37 -37 37h-12q-36 0 -36 -37v-305q0 -37 36 -37h13q37 0 37 37v111h99v-117q0 -115 -109 -121l-19 -93h-89l42 92q-111 6 -111 122v317q0 122 122 122h42q121 0 121 -121v-100h-99z" />
    <glyph glyph-name="egrave" unicode="&#xe8;" horiz-adv-x="336" 
d="M310 235h-183v-114q0 -37 36 -37h13q37 0 37 37v58h97v-63q0 -122 -122 -122h-39q-122 0 -122 122v317q0 122 122 122h39q122 0 122 -122v-198zM127 429v-108h84v108q0 37 -37 37h-11q-36 0 -36 -37zM169 699l37 -110h-71l-67 110h101z" />
    <glyph glyph-name="eacute" unicode="&#xe9;" horiz-adv-x="336" 
d="M310 235h-183v-114q0 -37 36 -37h13q37 0 37 37v58h97v-63q0 -122 -122 -122h-39q-122 0 -122 122v317q0 122 122 122h39q122 0 122 -122v-198zM127 429v-108h84v108q0 37 -37 37h-11q-36 0 -36 -37zM132 589l37 110h101l-67 -110h-71z" />
    <glyph glyph-name="ecircumflex" unicode="&#xea;" horiz-adv-x="336" 
d="M310 235h-183v-114q0 -37 36 -37h13q37 0 37 37v58h97v-63q0 -122 -122 -122h-39q-122 0 -122 122v317q0 122 122 122h39q122 0 122 -122v-198zM210 699l66 -110h-66l-41 49l-41 -49h-66l66 110h82zM127 429v-108h84v108q0 37 -37 37h-11q-36 0 -36 -37z" />
    <glyph glyph-name="edieresis" unicode="&#xeb;" horiz-adv-x="336" 
d="M310 235h-183v-114q0 -37 36 -37h13q37 0 37 37v58h97v-63q0 -122 -122 -122h-39q-122 0 -122 122v317q0 122 122 122h39q122 0 122 -122v-198zM127 429v-108h84v108q0 37 -37 37h-11q-36 0 -36 -37zM149 692v-103h-83v103h83zM189 589v103h83v-103h-83z" />
    <glyph glyph-name="igrave" unicode="&#xec;" horiz-adv-x="164" 
d="M31 0v549h101v-549h-101zM82 699l37 -110h-71l-67 110h101z" />
    <glyph glyph-name="iacute" unicode="&#xed;" horiz-adv-x="164" 
d="M45 589l37 110h101l-67 -110h-71zM31 0v549h101v-549h-101z" />
    <glyph glyph-name="icircumflex" unicode="&#xee;" horiz-adv-x="164" 
d="M123 699l66 -110h-66l-41 49l-41 -49h-66l66 110h82zM31 0v549h101v-549h-101z" />
    <glyph glyph-name="idieresis" unicode="&#xef;" horiz-adv-x="164" 
d="M102 589v103h83v-103h-83zM62 692v-103h-83v103h83zM31 0v549h101v-549h-101z" />
    <glyph glyph-name="eth" unicode="&#xf0;" horiz-adv-x="346" 
d="M314 710l-42 -67q46 -30 46 -93v-434q0 -122 -122 -122h-47q-122 0 -122 122v334q0 48 24.5 75t69.5 27h1q56 0 100 -39v24q0 21 -8 31t-31 19l-94 41l41 80l82 -36l22 38h80zM180 464h-16q-36 0 -36 -37v-305q0 -37 36 -37h16q37 0 37 37v305q0 37 -37 37z" />
    <glyph glyph-name="ntilde" unicode="&#xf1;" horiz-adv-x="346" 
d="M29 0v549h100v-36q47 42 96 42h5q88 0 88 -94v-461h-101v431q0 32 -33 32q-25 0 -54 -17v-446h-101zM111 699h8q27 0 48 -15l27 -19q15 -11 22 -11q10 0 10 12v33h59v-59q0 -51 -48 -51h-8q-26 0 -47 15l-28 20q-16 10 -22 10q-10 0 -10 -12v-33h-59v59q0 51 48 51z" />
    <glyph glyph-name="ograve" unicode="&#xf2;" horiz-adv-x="344" 
d="M180 464h-16q-36 0 -36 -37v-305q0 -37 36 -37h16q37 0 37 37v305q0 37 -37 37zM196 -6h-47q-122 0 -122 122v317q0 122 122 122h47q122 0 122 -122v-317q0 -122 -122 -122zM173 699l37 -110h-71l-67 110h101z" />
    <glyph glyph-name="oacute" unicode="&#xf3;" horiz-adv-x="344" 
d="M136 589l37 110h101l-67 -110h-71zM180 464h-16q-36 0 -36 -37v-305q0 -37 36 -37h16q37 0 37 37v305q0 37 -37 37zM196 -6h-47q-122 0 -122 122v317q0 122 122 122h47q122 0 122 -122v-317q0 -122 -122 -122z" />
    <glyph glyph-name="ocircumflex" unicode="&#xf4;" horiz-adv-x="344" 
d="M214 699l66 -110h-66l-41 49l-41 -49h-66l66 110h82zM180 464h-16q-36 0 -36 -37v-305q0 -37 36 -37h16q37 0 37 37v305q0 37 -37 37zM196 -6h-47q-122 0 -122 122v317q0 122 122 122h47q122 0 122 -122v-317q0 -122 -122 -122z" />
    <glyph glyph-name="otilde" unicode="&#xf5;" horiz-adv-x="344" 
d="M196 -6h-47q-122 0 -122 122v317q0 122 122 122h47q122 0 122 -122v-317q0 -122 -122 -122zM180 464h-16q-36 0 -36 -37v-305q0 -37 36 -37h16q37 0 37 37v305q0 37 -37 37zM110 699h8q27 0 48 -15l27 -19q15 -11 22 -11q10 0 10 12v33h59v-59q0 -51 -48 -51h-8
q-26 0 -47 15l-28 20q-16 10 -22 10q-10 0 -10 -12v-33h-59v59q0 51 48 51z" />
    <glyph glyph-name="odieresis" unicode="&#xf6;" horiz-adv-x="344" 
d="M193 589v103h83v-103h-83zM153 692v-103h-83v103h83zM180 464h-16q-36 0 -36 -37v-305q0 -37 36 -37h16q37 0 37 37v305q0 37 -37 37zM196 -6h-47q-122 0 -122 122v317q0 122 122 122h47q122 0 122 -122v-317q0 -122 -122 -122z" />
    <glyph glyph-name="divide" unicode="&#xf7;" horiz-adv-x="314" 
d="M10 394h294v-77h-294v77zM115 434v85h84v-85h-84zM115 192v85h84v-85h-84z" />
    <glyph glyph-name="oslash" unicode="&#xf8;" horiz-adv-x="344" 
d="M196 -6h-47q-122 0 -122 122v317q0 122 122 122h47q122 0 122 -122v-317q0 -122 -122 -122zM180 85q37 0 37 37l2 243l-84 -271q9 -9 29 -9h16zM180 464h-16q-37 0 -37 -37l-1 -239l82 266q-9 10 -28 10z" />
    <glyph glyph-name="ugrave" unicode="&#xf9;" horiz-adv-x="346" 
d="M317 549v-549h-100v36q-46 -42 -96 -42h-4q-89 0 -89 94v461h101v-431q0 -32 33 -32q26 0 54 17v446h101zM173 699l37 -110h-71l-67 110h101z" />
    <glyph glyph-name="uacute" unicode="&#xfa;" horiz-adv-x="346" 
d="M136 589l37 110h101l-67 -110h-71zM317 549v-549h-100v36q-46 -42 -96 -42h-4q-89 0 -89 94v461h101v-431q0 -32 33 -32q26 0 54 17v446h101z" />
    <glyph glyph-name="ucircumflex" unicode="&#xfb;" horiz-adv-x="346" 
d="M214 699l66 -110h-66l-41 49l-41 -49h-66l66 110h82zM317 549v-549h-100v36q-46 -42 -96 -42h-4q-89 0 -89 94v461h101v-431q0 -32 33 -32q26 0 54 17v446h101z" />
    <glyph glyph-name="udieresis" unicode="&#xfc;" horiz-adv-x="346" 
d="M193 589v103h83v-103h-83zM153 692v-103h-83v103h83zM317 549v-549h-100v36q-46 -42 -96 -42h-4q-89 0 -89 94v461h101v-431q0 -32 33 -32q26 0 54 17v446h101z" />
    <glyph glyph-name="yacute" unicode="&#xfd;" horiz-adv-x="327" 
d="M181 -110h-97l29 131l-104 528h101l53 -334l59 334h97zM128 589l37 110h101l-67 -110h-71z" />
    <glyph glyph-name="thorn" unicode="&#xfe;" horiz-adv-x="347" 
d="M29 710h101v-198q45 43 95 43h1q45 0 69.5 -27t24.5 -76v-355q0 -49 -24.5 -76t-69.5 -27h-1q-51 0 -95 40v-144h-101v820zM130 445v-341q25 -18 53 -18q36 0 36 34v309q0 34 -36 34q-28 0 -53 -18z" />
    <glyph glyph-name="ydieresis" unicode="&#xff;" horiz-adv-x="327" 
d="M181 -110h-97l29 131l-104 528h101l53 -334l59 334h97zM185 589v103h83v-103h-83zM145 692v-103h-83v103h83z" />
    <glyph glyph-name="Amacron" unicode="&#x100;" horiz-adv-x="367" 
d="M254 701l101 -701h-106l-14 110h-111l-13 -110h-99l100 701h142zM180 555l-44 -350h87zM78 813h212v-65h-212v65z" />
    <glyph glyph-name="amacron" unicode="&#x101;" horiz-adv-x="336" 
d="M26 87v111q0 48 17 72.5t60 38.5l105 36v85q0 37 -37 37h-7q-37 0 -37 -37v-68h-95v71q0 122 122 122h32q122 0 122 -122v-433h-99v35q-48 -41 -95 -41h-1q-87 0 -87 93zM69 672h212v-76h-212v76zM156 85q26 0 52 16v159l-55 -21q-17 -8 -23 -17t-6 -28v-78q0 -31 32 -31
z" />
    <glyph glyph-name="Abreve" unicode="&#x102;" horiz-adv-x="367" 
d="M254 701l101 -701h-106l-14 110h-111l-13 -110h-99l100 701h142zM180 555l-44 -350h87zM84 816v18h66v-12q0 -24 28 -24h12q28 0 28 24v12h66v-18q0 -78 -83 -78h-34q-83 0 -83 78z" />
    <glyph glyph-name="abreve" unicode="&#x103;" horiz-adv-x="336" 
d="M26 87v111q0 48 17 72.5t60 38.5l105 36v85q0 37 -37 37h-7q-37 0 -37 -37v-68h-95v71q0 122 122 122h32q122 0 122 -122v-433h-99v35q-48 -41 -95 -41h-1q-87 0 -87 93zM77 672v27h66v-25q0 -27 28 -27h8q28 0 28 27v25h66v-27q0 -86 -83 -86h-30q-83 0 -83 86zM156 85
q26 0 52 16v159l-55 -21q-17 -8 -23 -17t-6 -28v-78q0 -31 32 -31z" />
    <glyph glyph-name="Aogonek" unicode="&#x104;" horiz-adv-x="367" 
d="M254 701l101 -701h-16l-8 -14q-10 -17 -10 -27q0 -9 10 -9h27v-56h-53q-53 0 -53 46v6q0 21 20 52l1 2h-24l-14 110h-111l-13 -110h-99l100 701h142zM180 555l-44 -350h87z" />
    <glyph glyph-name="aogonek" unicode="&#x105;" horiz-adv-x="336" 
d="M26 87v111q0 48 17 72.5t60 38.5l105 36v85q0 37 -37 37h-7q-37 0 -37 -37v-68h-95v71q0 122 122 122h32q122 0 122 -122v-433h-13l-8 -14q-10 -17 -10 -27q0 -9 10 -9h27v-56h-53q-53 0 -53 46v6q0 21 20 52l1 2h-20v35q-48 -41 -95 -41h-1q-87 0 -87 93zM156 85
q26 0 52 16v159l-55 -21q-17 -8 -23 -17t-6 -28v-78q0 -31 32 -31z" />
    <glyph glyph-name="Cacute" unicode="&#x106;" horiz-adv-x="371" 
d="M238 287h105v-163q0 -130 -130 -130h-53q-130 0 -130 130v452q0 130 130 130h52q129 0 129 -129v-143h-105v137q0 41 -40 41h-18q-41 0 -41 -41v-442q0 -41 41 -41h20q40 0 40 41v158zM150 741l43 89h101l-73 -89h-71z" />
    <glyph glyph-name="cacute" unicode="&#x107;" horiz-adv-x="338" 
d="M133 589l37 110h101l-67 -110h-71zM213 334v93q0 37 -37 37h-12q-36 0 -36 -37v-305q0 -37 36 -37h13q37 0 37 37v111h99v-117q0 -122 -122 -122h-42q-122 0 -122 122v317q0 122 122 122h42q121 0 121 -121v-100h-99z" />
    <glyph glyph-name="Cdotaccent" unicode="&#x10a;" horiz-adv-x="371" 
d="M232 819v-78h-90v78h90zM238 287h105v-163q0 -130 -130 -130h-53q-130 0 -130 130v452q0 130 130 130h52q129 0 129 -129v-143h-105v137q0 41 -40 41h-18q-41 0 -41 -41v-442q0 -41 41 -41h20q40 0 40 41v158z" />
    <glyph glyph-name="cdotaccent" unicode="&#x10b;" horiz-adv-x="338" 
d="M213 334v93q0 37 -37 37h-12q-36 0 -36 -37v-305q0 -37 36 -37h13q37 0 37 37v111h99v-117q0 -122 -122 -122h-42q-122 0 -122 122v317q0 122 122 122h42q121 0 121 -121v-100h-99zM214 688v-99h-88v99h88z" />
    <glyph glyph-name="Ccaron" unicode="&#x10c;" horiz-adv-x="371" 
d="M238 287h105v-163q0 -130 -130 -130h-53q-130 0 -130 130v452q0 130 130 130h52q129 0 129 -129v-143h-105v137q0 41 -40 41h-18q-41 0 -41 -41v-442q0 -41 41 -41h20q40 0 40 41v158zM298 838l-70 -97h-82l-70 97h66l45 -40l45 40h66z" />
    <glyph glyph-name="ccaron" unicode="&#x10d;" horiz-adv-x="338" 
d="M277 699l-66 -110h-82l-66 110h66l41 -49l41 49h66zM213 334v93q0 37 -37 37h-12q-36 0 -36 -37v-305q0 -37 36 -37h13q37 0 37 37v111h99v-117q0 -122 -122 -122h-42q-122 0 -122 122v317q0 122 122 122h42q121 0 121 -121v-100h-99z" />
    <glyph glyph-name="Dcaron" unicode="&#x10e;" horiz-adv-x="376" 
d="M293 838l-70 -97h-82l-70 97h66l45 -40l45 40h66zM32 0v700h161q153 0 153 -153v-394q0 -153 -153 -153h-161zM139 606v-512h39q61 0 61 62v388q0 62 -61 62h-39z" />
    <glyph glyph-name="dcaron" unicode="&#x10f;" horiz-adv-x="347" 
d="M344 588v122h72l-30 -122h-42zM318 710v-710h-100v37q-45 -43 -95 -43h-1q-46 0 -70.5 27t-24.5 76v355q0 49 24.5 76t70.5 27h1q49 0 94 -39v194h101zM217 104v341q-25 18 -53 18q-36 0 -36 -34v-309q0 -34 36 -34q28 0 53 18z" />
    <glyph glyph-name="Dcroat" unicode="&#x110;" horiz-adv-x="388" 
d="M44 0v312h-42v86h42v302h161q153 0 153 -153v-394q0 -153 -153 -153h-161zM151 606v-208h60v-86h-60v-218h39q61 0 61 62v388q0 62 -61 62h-39z" />
    <glyph glyph-name="dcroat" unicode="&#x111;" horiz-adv-x="360" 
d="M318 710v-59h35v-66h-35v-585h-100v37q-45 -43 -95 -43h-1q-46 0 -70.5 27t-24.5 76v355q0 49 24.5 76t70.5 27h1q49 0 94 -39v69h-86v66h86v59h101zM217 104v341q-25 18 -53 18q-36 0 -36 -34v-309q0 -34 36 -34q28 0 53 18z" />
    <glyph glyph-name="Emacron" unicode="&#x112;" horiz-adv-x="297" 
d="M46 813h212v-65h-212v65zM32 700h238v-97h-131v-198h126v-97h-126v-211h133v-97h-240v700z" />
    <glyph glyph-name="emacron" unicode="&#x113;" horiz-adv-x="336" 
d="M310 235h-183v-114q0 -37 36 -37h13q37 0 37 37v58h97v-63q0 -122 -122 -122h-39q-122 0 -122 122v317q0 122 122 122h39q122 0 122 -122v-198zM63 672h212v-76h-212v76zM127 429v-108h84v108q0 37 -37 37h-11q-36 0 -36 -37z" />
    <glyph glyph-name="Ebreve" unicode="&#x114;" horiz-adv-x="297" 
d="M52 816v18h66v-12q0 -24 28 -24h12q28 0 28 24v12h66v-18q0 -78 -83 -78h-34q-83 0 -83 78zM32 700h238v-97h-131v-198h126v-97h-126v-211h133v-97h-240v700z" />
    <glyph glyph-name="ebreve" unicode="&#x115;" horiz-adv-x="336" 
d="M310 235h-183v-114q0 -37 36 -37h13q37 0 37 37v58h97v-63q0 -122 -122 -122h-39q-122 0 -122 122v317q0 122 122 122h39q122 0 122 -122v-198zM71 672v27h66v-25q0 -27 28 -27h8q28 0 28 27v25h66v-27q0 -86 -83 -86h-30q-83 0 -83 86zM127 429v-108h84v108q0 37 -37 37
h-11q-36 0 -36 -37z" />
    <glyph glyph-name="Edotaccent" unicode="&#x116;" horiz-adv-x="297" 
d="M197 819v-78h-90v78h90zM32 700h238v-97h-131v-198h126v-97h-126v-211h133v-97h-240v700z" />
    <glyph glyph-name="edotaccent" unicode="&#x117;" horiz-adv-x="336" 
d="M310 235h-183v-114q0 -37 36 -37h13q37 0 37 37v58h97v-63q0 -122 -122 -122h-39q-122 0 -122 122v317q0 122 122 122h39q122 0 122 -122v-198zM127 429v-108h84v108q0 37 -37 37h-11q-36 0 -36 -37zM213 688v-99h-88v99h88z" />
    <glyph glyph-name="Eogonek" unicode="&#x118;" horiz-adv-x="297" 
d="M32 700h238v-97h-131v-198h126v-97h-126v-211h133v-97h-18l-8 -14q-10 -17 -10 -27q0 -9 10 -9h27v-56h-53q-53 0 -53 46v6q0 21 20 52l1 2h-156v700z" />
    <glyph glyph-name="eogonek" unicode="&#x119;" horiz-adv-x="336" 
d="M310 235h-183v-114q0 -37 36 -37h13q37 0 37 37v62h97v-67q0 -42 -14 -68l-31 -62q-9 -17 -9 -27q0 -9 10 -9h26v-56h-52q-53 0 -53 46v6q0 19 17 50q-36 -2 -47 -2h-8q-122 0 -122 122v317q0 122 122 122h39q122 0 122 -122v-198zM127 429v-108h84v108q0 37 -37 37h-11
q-36 0 -36 -37z" />
    <glyph glyph-name="Ecaron" unicode="&#x11a;" horiz-adv-x="297" 
d="M263 838l-70 -97h-82l-70 97h66l45 -40l45 40h66zM32 700h238v-97h-131v-198h126v-97h-126v-211h133v-97h-240v700z" />
    <glyph glyph-name="ecaron" unicode="&#x11b;" horiz-adv-x="336" 
d="M310 235h-183v-114q0 -37 36 -37h13q37 0 37 37v58h97v-63q0 -122 -122 -122h-39q-122 0 -122 122v317q0 122 122 122h39q122 0 122 -122v-198zM276 699l-66 -110h-82l-66 110h66l41 -49l41 49h66zM127 429v-108h84v108q0 37 -37 37h-11q-36 0 -36 -37z" />
    <glyph glyph-name="Gbreve" unicode="&#x11e;" horiz-adv-x="376" 
d="M89 816v18h66v-12q0 -24 28 -24h12q28 0 28 24v12h66v-18q0 -78 -83 -78h-34q-83 0 -83 78zM243 290h-56v92h160v-258q0 -130 -130 -130h-57q-130 0 -130 130v452q0 130 130 130h56q129 0 129 -129v-113h-105v107q0 41 -40 41h-22q-41 0 -41 -41v-442q0 -41 41 -41h24
q41 0 41 41v161z" />
    <glyph glyph-name="gbreve" unicode="&#x11f;" horiz-adv-x="347" 
d="M318 549v-546q0 -117 -118 -117h-65q-106 0 -106 105v32h92v-24q0 -33 31 -33h35q31 0 31 33v92q-45 -38 -95 -38h-1q-46 0 -70.5 27t-24.5 76v296q0 49 24.5 76t70.5 27h1q50 0 95 -39v33h100zM217 160v285q-25 18 -53 18q-36 0 -36 -34v-252q0 -34 36 -34q28 0 53 17z
M82 672v27h66v-25q0 -27 28 -27h8q28 0 28 27v25h66v-27q0 -86 -83 -86h-30q-83 0 -83 86z" />
    <glyph glyph-name="Gdotaccent" unicode="&#x120;" horiz-adv-x="376" 
d="M234 819v-78h-90v78h90zM243 290h-56v92h160v-258q0 -130 -130 -130h-57q-130 0 -130 130v452q0 130 130 130h56q129 0 129 -129v-113h-105v107q0 41 -40 41h-22q-41 0 -41 -41v-442q0 -41 41 -41h24q41 0 41 41v161z" />
    <glyph glyph-name="gdotaccent" unicode="&#x121;" horiz-adv-x="347" 
d="M318 549v-546q0 -117 -118 -117h-65q-106 0 -106 105v32h92v-24q0 -33 31 -33h35q31 0 31 33v92q-45 -38 -95 -38h-1q-46 0 -70.5 27t-24.5 76v296q0 49 24.5 76t70.5 27h1q50 0 95 -39v33h100zM217 160v285q-25 18 -53 18q-36 0 -36 -34v-252q0 -34 36 -34q28 0 53 17z
M224 688v-99h-88v99h88z" />
    <glyph glyph-name="Gcommaaccent" unicode="&#x122;" horiz-adv-x="376" 
d="M243 290h-56v92h160v-258q0 -130 -130 -130h-57q-130 0 -130 130v452q0 130 130 130h56q129 0 129 -129v-113h-105v107q0 41 -40 41h-22q-41 0 -41 -41v-442q0 -41 41 -41h24q41 0 41 41v161zM230 -41v-60q0 -34 -6.5 -52t-27.5 -44l-20 -24l-28 18l14 22q15 24 17 43
h-30v97h81z" />
    <glyph glyph-name="gcommaaccent" unicode="&#x123;" horiz-adv-x="347" 
d="M318 549v-546q0 -117 -118 -117h-65q-106 0 -106 105v32h92v-24q0 -33 31 -33h35q31 0 31 33v92q-45 -38 -95 -38h-1q-46 0 -70.5 27t-24.5 76v296q0 49 24.5 76t70.5 27h1q50 0 95 -39v33h100zM217 160v285q-25 18 -53 18q-36 0 -36 -34v-252q0 -34 36 -34q28 0 53 17z
M139 590v60q0 34 6.5 52t27.5 44l20 24l28 -18l-14 -22q-16 -26 -18 -43h31v-97h-81z" />
    <glyph glyph-name="Hbar" unicode="&#x126;" horiz-adv-x="408" 
d="M2 516v86h42v98h107v-106h103v106h107v-98h45v-86h-45v-516h-107v308h-103v-308h-107v516h-42zM151 405h103v119h-103v-119z" />
    <glyph glyph-name="hbar" unicode="&#x127;" horiz-adv-x="359" 
d="M41 0v585h-35v66h35v59h101v-59h87v-66h-87v-72q46 42 95 42h5q88 0 88 -94v-461h-101v431q0 32 -33 32q-25 0 -54 -17v-446h-101z" />
    <glyph glyph-name="Imacron" unicode="&#x12a;" horiz-adv-x="173" 
d="M140 700v-700h-107v700h107zM-19 813h212v-65h-212v65z" />
    <glyph glyph-name="imacron" unicode="&#x12b;" horiz-adv-x="164" 
d="M31 0v549h101v-549h-101zM-24 672h212v-76h-212v76z" />
    <glyph glyph-name="Ibreve" unicode="&#x12c;" horiz-adv-x="173" 
d="M140 700v-700h-107v700h107zM-13 816v18h66v-12q0 -24 28 -24h12q28 0 28 24v12h66v-18q0 -78 -83 -78h-34q-83 0 -83 78z" />
    <glyph glyph-name="ibreve" unicode="&#x12d;" horiz-adv-x="164" 
d="M31 0v549h101v-549h-101zM-16 672v27h66v-25q0 -27 28 -27h8q28 0 28 27v25h66v-27q0 -86 -83 -86h-30q-83 0 -83 86z" />
    <glyph glyph-name="Iogonek" unicode="&#x12e;" horiz-adv-x="173" 
d="M140 700v-700h-17l-8 -14q-10 -17 -10 -27q0 -9 10 -9h27v-56h-53q-53 0 -53 46v6q0 21 20 52l1 2h-24v700h107z" />
    <glyph glyph-name="iogonek" unicode="&#x12f;" horiz-adv-x="164" 
d="M31 0v549h101v-549h-14l-8 -14q-10 -17 -10 -27q0 -9 10 -9h27v-56h-53q-53 0 -53 46v6q0 21 20 52l1 2h-21zM29 595v98h105v-98h-105z" />
    <glyph glyph-name="Idotaccent" unicode="&#x130;" horiz-adv-x="173" 
d="M140 700v-700h-107v700h107zM132 819v-78h-90v78h90z" />
    <glyph glyph-name="dotlessi" unicode="&#x131;" horiz-adv-x="164" 
d="M31 0v549h101v-549h-101z" />
    <glyph glyph-name="Kcommaaccent" unicode="&#x136;" horiz-adv-x="364" 
d="M358 0h-115l-104 343v-343h-107v700h107v-338l111 338h112l-120 -344zM220 -41v-60q0 -34 -6.5 -52t-27.5 -44l-20 -24l-28 18l14 22q15 24 17 43h-30v97h81z" />
    <glyph glyph-name="kcommaaccent" unicode="&#x137;" horiz-adv-x="331" 
d="M223 549h106l-102 -269l98 -280h-108l-87 273v-273h-101v710h101v-428zM208 -41v-60q0 -34 -6.5 -52t-27.5 -44l-20 -24l-28 18l14 22q15 24 17 43h-30v97h81z" />
    <glyph glyph-name="Lacute" unicode="&#x139;" horiz-adv-x="274" 
d="M50 741l43 89h101l-73 -89h-71zM42 700h107v-603h118v-97h-225v700z" />
    <glyph glyph-name="lacute" unicode="&#x13a;" horiz-adv-x="164" 
d="M46 739l37 110h101l-67 -110h-71zM31 0v710h101v-710h-101z" />
    <glyph glyph-name="Lcommaaccent" unicode="&#x13b;" horiz-adv-x="274" 
d="M42 700h107v-603h118v-97h-225v700zM186 -41v-60q0 -34 -6.5 -52t-27.5 -44l-20 -24l-28 18l14 22q15 24 17 43h-30v97h81z" />
    <glyph glyph-name="lcommaaccent" unicode="&#x13c;" horiz-adv-x="164" 
d="M31 0v710h101v-710h-101zM123 -41v-60q0 -34 -6.5 -52t-27.5 -44l-20 -24l-28 18l14 22q15 24 17 43h-30v97h81z" />
    <glyph glyph-name="Lcaron" unicode="&#x13d;" horiz-adv-x="274" 
d="M168 578v122h72l-30 -122h-42zM42 700h107v-603h118v-97h-225v700z" />
    <glyph glyph-name="lcaron" unicode="&#x13e;" horiz-adv-x="164" 
d="M159 588v122h72l-30 -122h-42zM31 0v710h101v-710h-101z" />
    <glyph glyph-name="Ldot" unicode="&#x13f;" horiz-adv-x="271" 
d="M254 401v-99h-72v99h72zM42 700h107v-603h118v-97h-225v700z" />
    <glyph glyph-name="ldot" unicode="&#x140;" horiz-adv-x="218" 
d="M224 405v-99h-66v99h66zM31 0v710h101v-710h-101z" />
    <glyph glyph-name="Lslash" unicode="&#x141;" horiz-adv-x="279" 
d="M46 700h107v-270l57 30v-86l-57 -30v-247h118v-97h-225v287l-52 -27v86l52 27v327z" />
    <glyph glyph-name="lslash" unicode="&#x142;" horiz-adv-x="180" 
d="M39 0v282l-36 -26v83l36 24v347h101v-280l37 27v-83l-37 -25v-349h-101z" />
    <glyph glyph-name="Nacute" unicode="&#x143;" horiz-adv-x="384" 
d="M157 741l43 89h101l-73 -89h-71zM257 265l-1 435h96v-700h-116l-109 472l1 -472h-96v700h125z" />
    <glyph glyph-name="nacute" unicode="&#x144;" horiz-adv-x="346" 
d="M137 589l37 110h101l-67 -110h-71zM29 0v549h100v-36q47 42 96 42h5q88 0 88 -94v-461h-101v431q0 32 -33 32q-25 0 -54 -17v-446h-101z" />
    <glyph glyph-name="Ncommaaccent" unicode="&#x145;" horiz-adv-x="384" 
d="M257 265l-1 435h96v-700h-116l-109 472l1 -472h-96v700h125zM231 -41v-60q0 -34 -6.5 -52t-27.5 -44l-20 -24l-28 18l14 22q15 24 17 43h-30v97h81z" />
    <glyph glyph-name="ncommaaccent" unicode="&#x146;" horiz-adv-x="346" 
d="M29 0v549h100v-36q47 42 96 42h5q88 0 88 -94v-461h-101v431q0 32 -33 32q-25 0 -54 -17v-446h-101zM215 -41v-60q0 -34 -6.5 -52t-27.5 -44l-20 -24l-28 18l14 22q15 24 17 43h-30v97h81z" />
    <glyph glyph-name="Ncaron" unicode="&#x147;" horiz-adv-x="384" 
d="M305 838l-70 -97h-82l-70 97h66l45 -40l45 40h66zM257 265l-1 435h96v-700h-116l-109 472l1 -472h-96v700h125z" />
    <glyph glyph-name="ncaron" unicode="&#x148;" horiz-adv-x="346" 
d="M281 699l-66 -110h-82l-66 110h66l41 -49l41 49h66zM29 0v549h100v-36q47 42 96 42h5q88 0 88 -94v-461h-101v431q0 32 -33 32q-25 0 -54 -17v-446h-101z" />
    <glyph glyph-name="Omacron" unicode="&#x14c;" horiz-adv-x="377" 
d="M83 813h212v-65h-212v65zM347 124q0 -130 -130 -130h-57q-130 0 -130 130v452q0 130 130 130h57q130 0 130 -130v-452zM240 571q0 41 -40 41h-22q-41 0 -41 -41v-442q0 -41 41 -41h22q40 0 40 41v442z" />
    <glyph glyph-name="omacron" unicode="&#x14d;" horiz-adv-x="344" 
d="M67 672h212v-76h-212v76zM180 464h-16q-36 0 -36 -37v-305q0 -37 36 -37h16q37 0 37 37v305q0 37 -37 37zM196 -6h-47q-122 0 -122 122v317q0 122 122 122h47q122 0 122 -122v-317q0 -122 -122 -122z" />
    <glyph glyph-name="Obreve" unicode="&#x14e;" horiz-adv-x="377" 
d="M89 816v18h66v-12q0 -24 28 -24h12q28 0 28 24v12h66v-18q0 -78 -83 -78h-34q-83 0 -83 78zM347 124q0 -130 -130 -130h-57q-130 0 -130 130v452q0 130 130 130h57q130 0 130 -130v-452zM240 571q0 41 -40 41h-22q-41 0 -41 -41v-442q0 -41 41 -41h22q40 0 40 41v442z
" />
    <glyph glyph-name="obreve" unicode="&#x14f;" horiz-adv-x="344" 
d="M180 464h-16q-36 0 -36 -37v-305q0 -37 36 -37h16q37 0 37 37v305q0 37 -37 37zM196 -6h-47q-122 0 -122 122v317q0 122 122 122h47q122 0 122 -122v-317q0 -122 -122 -122zM75 672v27h66v-25q0 -27 28 -27h8q28 0 28 27v25h66v-27q0 -86 -83 -86h-30q-83 0 -83 86z" />
    <glyph glyph-name="Ohungarumlaut" unicode="&#x150;" horiz-adv-x="377" 
d="M347 124q0 -130 -130 -130h-57q-130 0 -130 130v452q0 130 130 130h57q130 0 130 -130v-452zM240 571q0 41 -40 41h-22q-41 0 -41 -41v-442q0 -41 41 -41h22q40 0 40 41v442zM118 741l37 89h88l-72 -89h-53zM209 741l37 89h89l-72 -89h-54z" />
    <glyph glyph-name="ohungarumlaut" unicode="&#x151;" horiz-adv-x="344" 
d="M103 589l32 110h86l-66 -110h-52zM193 589l31 110h87l-66 -110h-52zM180 464h-16q-36 0 -36 -37v-305q0 -37 36 -37h16q37 0 37 37v305q0 37 -37 37zM196 -6h-47q-122 0 -122 122v317q0 122 122 122h47q122 0 122 -122v-317q0 -122 -122 -122z" />
    <glyph glyph-name="OE" unicode="&#x152;" horiz-adv-x="502" 
d="M183 700h292v-97h-131v-198h126v-97h-126v-211h133v-97h-294q-153 0 -153 153v394q0 153 153 153zM237 94v512h-39q-61 0 -61 -62v-388q0 -62 61 -62h39z" />
    <glyph glyph-name="oe" unicode="&#x153;" horiz-adv-x="526" 
d="M348 555h30q122 0 122 -122v-198h-183v-114q0 -37 36 -37h13q37 0 37 37v58h97v-63q0 -122 -122 -122h-30q-54 0 -81 32q-25 -32 -80 -32h-38q-122 0 -122 122v317q0 122 122 122h38q55 0 80 -33q26 33 81 33zM181 463h-18q-35 0 -35 -35v-307q0 -35 35 -35h18
q35 0 36 33v309q0 35 -36 35zM317 429v-108h84v108q0 37 -37 37h-11q-36 0 -36 -37z" />
    <glyph glyph-name="Racute" unicode="&#x154;" horiz-adv-x="369" 
d="M277 330q33 -9 47.5 -30.5t14.5 -61.5v-238h-107v236q0 45 -45 45h-48v-281h-107v700h176q130 0 130 -130v-132q0 -83 -61 -108zM231 565q0 40 -40 40h-52v-231h48q44 0 44 43v148zM145 741l43 89h101l-73 -89h-71z" />
    <glyph glyph-name="racute" unicode="&#x155;" horiz-adv-x="225" 
d="M81 589l37 110h101l-67 -110h-71zM29 0v549h100v-59q18 34 37 49t48 15v-112q-53 -4 -84 -32v-410h-101z" />
    <glyph glyph-name="Rcommaaccent" unicode="&#x156;" horiz-adv-x="369" 
d="M277 330q33 -9 47.5 -30.5t14.5 -61.5v-238h-107v236q0 45 -45 45h-48v-281h-107v700h176q130 0 130 -130v-132q0 -83 -61 -108zM231 565q0 40 -40 40h-52v-231h48q44 0 44 43v148zM223 -41v-60q0 -34 -6.5 -52t-27.5 -44l-20 -24l-28 18l14 22q15 24 17 43h-30v97h81z
" />
    <glyph glyph-name="rcommaaccent" unicode="&#x157;" horiz-adv-x="225" 
d="M29 0v549h100v-59q18 34 37 49t48 15v-112q-53 -4 -84 -32v-410h-101zM121 -41v-60q0 -34 -6.5 -52t-27.5 -44l-20 -24l-28 18l14 22q15 24 17 43h-30v97h81z" />
    <glyph glyph-name="Rcaron" unicode="&#x158;" horiz-adv-x="369" 
d="M293 838l-70 -97h-82l-70 97h66l45 -40l45 40h66zM277 330q33 -9 47.5 -30.5t14.5 -61.5v-238h-107v236q0 45 -45 45h-48v-281h-107v700h176q130 0 130 -130v-132q0 -83 -61 -108zM231 565q0 40 -40 40h-52v-231h48q44 0 44 43v148z" />
    <glyph glyph-name="rcaron" unicode="&#x159;" horiz-adv-x="225" 
d="M225 699l-66 -110h-82l-66 110h66l41 -49l41 49h66zM29 0v549h100v-59q18 34 37 49t48 15v-112q-53 -4 -84 -32v-410h-101z" />
    <glyph glyph-name="Sacute" unicode="&#x15a;" horiz-adv-x="362" 
d="M273 359q35 -25 48.5 -51.5t13.5 -69.5v-114q0 -130 -130 -130h-47q-129 0 -129 129v148h104v-144q0 -40 41 -40h14q41 0 41 40v96q0 35 -30 57l-108 79q-35 25 -48.5 52t-13.5 69v96q0 130 130 130h45q129 0 129 -129v-127h-105v123q0 40 -40 40h-13q-40 0 -40 -40v-78
q0 -36 30 -57zM145 741l43 89h101l-73 -89h-71z" />
    <glyph glyph-name="sacute" unicode="&#x15b;" horiz-adv-x="330" 
d="M128 589l37 110h101l-67 -110h-71zM206 354v77q0 36 -36 36h-11q-35 0 -35 -36v-43q0 -27 24 -42l95 -60q34 -21 48 -43.5t14 -60.5v-66q0 -122 -122 -122h-36q-121 0 -121 121v83h98v-80q0 -36 35 -36h13q36 0 36 36v46q0 27 -24 43l-96 59q-33 21 -47 43.5t-14 60.5v63
q0 122 122 122h34q121 0 121 -121v-80h-98z" />
    <glyph glyph-name="Scedilla" unicode="&#x15e;" horiz-adv-x="362" 
d="M273 359q35 -25 48.5 -51.5t13.5 -69.5v-114q0 -123 -116 -129l-19 -93h-89l42 92q-124 3 -124 129v148h104v-144q0 -40 41 -40h14q41 0 41 40v96q0 35 -30 57l-108 79q-35 25 -48.5 52t-13.5 69v96q0 130 130 130h45q129 0 129 -129v-127h-105v123q0 40 -40 40h-13
q-40 0 -40 -40v-78q0 -36 30 -57z" />
    <glyph glyph-name="scedilla" unicode="&#x15f;" horiz-adv-x="330" 
d="M206 354v77q0 36 -36 36h-11q-35 0 -35 -36v-43q0 -27 24 -42l95 -60q34 -21 48 -43.5t14 -60.5v-66q0 -113 -105 -121l-19 -93h-89l42 93q-108 6 -108 120v83h98v-80q0 -36 35 -36h13q36 0 36 36v46q0 27 -24 43l-96 59q-33 21 -47 43.5t-14 60.5v63q0 122 122 122h34
q121 0 121 -121v-80h-98z" />
    <glyph glyph-name="Scaron" unicode="&#x160;" horiz-adv-x="362" 
d="M273 359q35 -25 48.5 -51.5t13.5 -69.5v-114q0 -130 -130 -130h-47q-129 0 -129 129v148h104v-144q0 -40 41 -40h14q41 0 41 40v96q0 35 -30 57l-108 79q-35 25 -48.5 52t-13.5 69v96q0 130 130 130h45q129 0 129 -129v-127h-105v123q0 40 -40 40h-13q-40 0 -40 -40v-78
q0 -36 30 -57zM293 838l-70 -97h-82l-70 97h66l45 -40l45 40h66z" />
    <glyph glyph-name="scaron" unicode="&#x161;" horiz-adv-x="330" 
d="M272 699l-66 -110h-82l-66 110h66l41 -49l41 49h66zM206 354v77q0 36 -36 36h-11q-35 0 -35 -36v-43q0 -27 24 -42l95 -60q34 -21 48 -43.5t14 -60.5v-66q0 -122 -122 -122h-36q-121 0 -121 121v83h98v-80q0 -36 35 -36h13q36 0 36 36v46q0 27 -24 43l-96 59
q-33 21 -47 43.5t-14 60.5v63q0 122 122 122h34q121 0 121 -121v-80h-98z" />
    <glyph glyph-name="Tcommaaccent" unicode="&#x162;" horiz-adv-x="319" 
d="M213 0h-107v603h-96v97h299v-97h-96v-603zM201 -41v-60q0 -34 -6.5 -52t-27.5 -44l-20 -24l-28 18l14 22q15 24 17 43h-30v97h81z" />
    <glyph glyph-name="tcommaaccent" unicode="&#x163;" horiz-adv-x="213" 
d="M151 461v-461h-101v461h-36v88h36v90h101v-90h53v-88h-53zM146 -41v-60q0 -34 -6.5 -52t-27.5 -44l-20 -24l-28 18l14 22q15 24 17 43h-30v97h81z" />
    <glyph glyph-name="Tcaron" unicode="&#x164;" horiz-adv-x="319" 
d="M271 838l-70 -97h-82l-70 97h66l45 -40l45 40h66zM213 0h-107v603h-96v97h299v-97h-96v-603z" />
    <glyph glyph-name="tcaron" unicode="&#x165;" horiz-adv-x="213" 
d="M177 588v122h72l-30 -122h-42zM151 461v-461h-101v461h-36v88h36v90h101v-90h53v-88h-53z" />
    <glyph glyph-name="Umacron" unicode="&#x16a;" horiz-adv-x="374" 
d="M81 813h212v-65h-212v65zM343 700v-576q0 -130 -130 -130h-52q-130 0 -130 130v576h107v-571q0 -41 41 -41h17q40 0 40 41v571h107z" />
    <glyph glyph-name="umacron" unicode="&#x16b;" horiz-adv-x="346" 
d="M317 549v-549h-100v36q-46 -42 -96 -42h-4q-89 0 -89 94v461h101v-431q0 -32 33 -32q26 0 54 17v446h101zM67 672h212v-76h-212v76z" />
    <glyph glyph-name="Ubreve" unicode="&#x16c;" horiz-adv-x="374" 
d="M87 814v18h66v-12q0 -24 28 -24h12q28 0 28 24v12h66v-18q0 -78 -83 -78h-34q-83 0 -83 78zM343 700v-576q0 -130 -130 -130h-52q-130 0 -130 130v576h107v-571q0 -41 41 -41h17q40 0 40 41v571h107z" />
    <glyph glyph-name="ubreve" unicode="&#x16d;" horiz-adv-x="346" 
d="M317 549v-549h-100v36q-46 -42 -96 -42h-4q-89 0 -89 94v461h101v-431q0 -32 33 -32q26 0 54 17v446h101zM75 672v27h66v-25q0 -27 28 -27h8q28 0 28 27v25h66v-27q0 -86 -83 -86h-30q-83 0 -83 86z" />
    <glyph glyph-name="Uring" unicode="&#x16e;" horiz-adv-x="374" 
d="M343 700v-576q0 -130 -130 -130h-52q-130 0 -130 130v576h107v-571q0 -41 41 -41h17q40 0 40 41v571h107zM288 796v-5q0 -53 -65 -53h-72q-65 0 -65 53v5q0 53 65 53h72q65 0 65 -53zM262 791v4q0 31 -41 31h-68q-41 0 -41 -31v-4q0 -31 41 -31h68q41 0 41 31z" />
    <glyph glyph-name="uring" unicode="&#x16f;" horiz-adv-x="346" 
d="M259 647v-6q0 -55 -65 -55h-42q-65 0 -65 55v6q0 55 65 55h42q65 0 65 -55zM234 641v6q0 33 -42 33h-38q-42 0 -42 -33v-6q0 -33 43 -33h37q42 0 42 33zM317 549v-549h-100v36q-46 -42 -96 -42h-4q-89 0 -89 94v461h101v-431q0 -32 33 -32q26 0 54 17v446h101z" />
    <glyph glyph-name="Uhungarumlaut" unicode="&#x170;" horiz-adv-x="374" 
d="M343 700v-576q0 -130 -130 -130h-52q-130 0 -130 130v576h107v-571q0 -41 41 -41h17q40 0 40 41v571h107zM116 741l37 89h88l-72 -89h-53zM207 741l37 89h89l-72 -89h-54z" />
    <glyph glyph-name="uhungarumlaut" unicode="&#x171;" horiz-adv-x="346" 
d="M317 549v-549h-100v36q-46 -42 -96 -42h-4q-89 0 -89 94v461h101v-431q0 -32 33 -32q26 0 54 17v446h101zM103 589l32 110h86l-66 -110h-52zM193 589l31 110h87l-66 -110h-52z" />
    <glyph glyph-name="Uogonek" unicode="&#x172;" horiz-adv-x="374" 
d="M343 700v-576q0 -127 -124 -130l-5 -8q-10 -17 -10 -27q0 -9 10 -9h27v-56h-53q-53 0 -53 46v6q0 20 17 48q-121 4 -121 130v576h107v-571q0 -41 41 -41h17q40 0 40 41v571h107z" />
    <glyph glyph-name="uogonek" unicode="&#x173;" horiz-adv-x="346" 
d="M317 549v-549h-13l-8 -14q-10 -17 -10 -27q0 -9 10 -9h27v-56h-53q-53 0 -53 46v6q0 21 20 52l1 2h-21v36q-46 -42 -96 -42h-4q-89 0 -89 94v461h101v-431q0 -32 33 -32q26 0 54 17v446h101z" />
    <glyph glyph-name="Wcircumflex" unicode="&#x174;" horiz-adv-x="552" 
d="M102 0l-85 700h108l50 -494l54 494h103l54 -493l50 493h98l-85 -700h-126l-47 419l-47 -419h-127zM321 838l70 -97h-66l-45 39l-45 -39h-66l70 97h82z" />
    <glyph glyph-name="wcircumflex" unicode="&#x175;" horiz-adv-x="483" 
d="M288 699l66 -110h-66l-41 49l-41 -49h-66l66 110h82zM94 0l-82 549h100l39 -355l48 355h91l48 -354l39 354h94l-82 -549h-103l-43 319l-46 -319h-103z" />
    <glyph glyph-name="Ycircumflex" unicode="&#x176;" horiz-adv-x="345" 
d="M175 405l63 295h103l-115 -455v-245h-107v240l-115 460h110zM216 838l70 -97h-66l-45 39l-45 -39h-66l70 97h82z" />
    <glyph glyph-name="ycircumflex" unicode="&#x177;" horiz-adv-x="327" 
d="M181 -110h-97l29 131l-104 528h101l53 -334l59 334h97zM206 699l66 -110h-66l-41 49l-41 -49h-66l66 110h82z" />
    <glyph glyph-name="Ydieresis" unicode="&#x178;" horiz-adv-x="345" 
d="M175 405l63 295h103l-115 -455v-245h-107v240l-115 460h110zM195 741v82h85v-82h-85zM155 823v-82h-85v82h85z" />
    <glyph glyph-name="Zacute" unicode="&#x179;" horiz-adv-x="298" 
d="M175 604h-151v96h255v-105l-155 -499h155v-96h-260v105zM114 741l43 89h101l-73 -89h-71z" />
    <glyph glyph-name="zacute" unicode="&#x17a;" horiz-adv-x="277" 
d="M107 589l37 110h101l-67 -110h-71zM157 461h-136v88h240v-88l-142 -373h142v-88h-245v88z" />
    <glyph glyph-name="Zdotaccent" unicode="&#x17b;" horiz-adv-x="298" 
d="M196 819v-78h-90v78h90zM175 604h-151v96h255v-105l-155 -499h155v-96h-260v105z" />
    <glyph glyph-name="zdotaccent" unicode="&#x17c;" horiz-adv-x="277" 
d="M157 461h-136v88h240v-88l-142 -373h142v-88h-245v88zM188 688v-99h-88v99h88z" />
    <glyph glyph-name="Zcaron" unicode="&#x17d;" horiz-adv-x="298" 
d="M262 838l-70 -97h-82l-70 97h66l45 -40l45 40h66zM175 604h-151v96h255v-105l-155 -499h155v-96h-260v105z" />
    <glyph glyph-name="zcaron" unicode="&#x17e;" horiz-adv-x="277" 
d="M251 699l-66 -110h-82l-66 110h66l41 -49l41 49h66zM157 461h-136v88h240v-88l-142 -373h142v-88h-245v88z" />
    <glyph glyph-name="Aringacute" unicode="&#x1fa;" horiz-adv-x="367" 
d="M284 712v-5q0 -33 -25 -46l96 -661h-106l-14 110h-111l-13 -110h-99l96 661q-26 13 -26 46v5q0 53 65 53h72q65 0 65 -53zM180 556l-44 -351h87zM258 706v6q0 30 -40 30h-69q-41 0 -41 -30v-6q0 -30 41 -30h69q40 0 40 30zM147 785l43 89h101l-73 -89h-71z" />
    <glyph glyph-name="aringacute" unicode="&#x1fb;" horiz-adv-x="336" 
d="M26 87v111q0 48 17 72.5t60 38.5l105 36v85q0 37 -37 37h-7q-37 0 -37 -37v-68h-95v71q0 122 122 122h32q122 0 122 -122v-433h-99v35q-48 -41 -95 -41h-1q-87 0 -87 93zM256 647v-6q0 -55 -65 -55h-42q-65 0 -65 55v6q0 55 65 55h42q65 0 65 -55zM156 85q26 0 52 16v159
l-55 -21q-17 -8 -23 -17t-6 -28v-78q0 -31 32 -31zM136 730l37 110h101l-67 -110h-71zM231 641v6q0 33 -42 33h-38q-42 0 -42 -33v-6q0 -33 43 -33h37q42 0 42 33z" />
    <glyph glyph-name="AEacute" unicode="&#x1fc;" horiz-adv-x="469" 
d="M136 700h308v-97h-131v-198h126v-97h-126v-211h133v-97h-240v110h-84l-18 -110h-99zM206 205v410l-68 -410h68zM226 741l43 89h101l-73 -89h-71z" />
    <glyph glyph-name="aeacute" unicode="&#x1fd;" horiz-adv-x="517" 
d="M339 555h30q122 0 122 -122v-198h-183v-114q0 -37 36 -37h13q37 0 37 37v62h97v-67q0 -122 -122 -122h-39q-76 0 -105 47l-11 -8q-22 -14 -33 -20.5t-29.5 -12.5t-37.5 -6h-1q-87 0 -87 93v115q0 48 17 72t60 38l105 36v82q0 37 -37 37h-7q-37 0 -37 -37v-68h-95v71
q0 122 122 122h23q53 0 81 -33q26 33 81 33zM156 85q26 0 52 16v162l-55 -21q-16 -7 -22.5 -16.5t-6.5 -28.5v-81q0 -31 32 -31zM308 429v-108h84v108q0 37 -37 37h-11q-36 0 -36 -37zM221 589l37 110h101l-67 -110h-71z" />
    <glyph glyph-name="Oslashacute" unicode="&#x1fe;" horiz-adv-x="377" 
d="M347 124q0 -130 -130 -130h-57q-130 0 -130 130v452q0 130 130 130h57q130 0 130 -130v-452zM241 129l1 332l-99 -359q11 -14 35 -14h21q42 0 42 41zM137 571l-3 -334l100 360q-9 15 -34 15h-22q-41 0 -41 -41zM152 741l43 89h101l-73 -89h-71z" />
    <glyph glyph-name="oslashacute" unicode="&#x1ff;" horiz-adv-x="344" 
d="M196 -6h-47q-122 0 -122 122v317q0 122 122 122h47q122 0 122 -122v-317q0 -122 -122 -122zM180 85q37 0 37 37l2 243l-84 -271q9 -9 29 -9h16zM180 464h-16q-37 0 -37 -37l-1 -239l82 266q-9 10 -28 10zM136 589l37 110h101l-67 -110h-71z" />
    <glyph glyph-name="Scommaaccent" unicode="&#x218;" horiz-adv-x="362" 
d="M273 359q35 -25 48.5 -51.5t13.5 -69.5v-114q0 -130 -130 -130h-47q-129 0 -129 129v148h104v-144q0 -40 41 -40h14q41 0 41 40v96q0 35 -30 57l-108 79q-35 25 -48.5 52t-13.5 69v96q0 130 130 130h45q129 0 129 -129v-127h-105v123q0 40 -40 40h-13q-40 0 -40 -40v-78
q0 -36 30 -57zM223 -41v-60q0 -34 -6.5 -52t-27.5 -44l-20 -24l-28 18l14 22q15 24 17 43h-30v97h81z" />
    <glyph glyph-name="scommaaccent" unicode="&#x219;" horiz-adv-x="330" 
d="M206 354v77q0 36 -36 36h-11q-35 0 -35 -36v-43q0 -27 24 -42l95 -60q34 -21 48 -43.5t14 -60.5v-66q0 -122 -122 -122h-36q-121 0 -121 121v83h98v-80q0 -36 35 -36h13q36 0 36 36v46q0 27 -24 43l-96 59q-33 21 -47 43.5t-14 60.5v63q0 122 122 122h34q121 0 121 -121
v-80h-98zM206 -41v-60q0 -34 -6.5 -52t-27.5 -44l-20 -24l-28 18l14 22q15 24 17 43h-30v97h81z" />
    <glyph glyph-name="schwa" unicode="&#x259;" horiz-adv-x="336" 
d="M26 116v198h183v114q0 37 -36 37h-13q-37 0 -37 -37v-58h-97v63q0 122 122 122h39q122 0 122 -122v-317q0 -122 -122 -122h-39q-122 0 -122 122zM173 83q36 0 36 37v108h-84v-108q0 -37 37 -37h11z" />
    <glyph glyph-name="circumflex" unicode="&#x2c6;" 
d="M291 699l66 -110h-66l-41 49l-41 -49h-66l66 110h82z" />
    <glyph glyph-name="caron" unicode="&#x2c7;" 
d="M357 699l-66 -110h-82l-66 110h66l41 -49l41 49h66z" />
    <glyph glyph-name="breve" unicode="&#x2d8;" 
d="M152 672v27h66v-25q0 -27 28 -27h8q28 0 28 27v25h66v-27q0 -86 -83 -86h-30q-83 0 -83 86z" />
    <glyph glyph-name="dotaccent" unicode="&#x2d9;" 
d="M294 688v-99h-88v99h88z" />
    <glyph glyph-name="ring" unicode="&#x2da;" 
d="M336 647v-6q0 -55 -65 -55h-42q-65 0 -65 55v6q0 55 65 55h42q65 0 65 -55zM311 641v6q0 33 -42 33h-38q-42 0 -42 -33v-6q0 -33 43 -33h37q42 0 42 33z" />
    <glyph glyph-name="ogonek" unicode="&#x2db;" 
d="M253 17h65l-19 -31q-10 -17 -10 -27q0 -9 10 -9h27v-56h-53q-53 0 -53 46v6q0 21 20 52z" />
    <glyph glyph-name="tilde" unicode="&#x2dc;" 
d="M187 699h8q27 0 48 -15l27 -19q15 -11 22 -11q10 0 10 12v33h59v-59q0 -51 -48 -51h-8q-26 0 -47 15l-28 20q-16 10 -22 10q-10 0 -10 -12v-33h-59v59q0 51 48 51z" />
    <glyph glyph-name="hungarumlaut" unicode="&#x2dd;" 
d="M155 589l32 110h86l-66 -110h-52zM245 589l31 110h87l-66 -110h-52z" />
    <glyph glyph-name="commaaccent" unicode="&#x326;" 
d="M292 -41v-60q0 -34 -6.5 -52t-27.5 -44l-20 -24l-28 18l14 22q15 24 17 43h-30v97h81z" />
    <glyph glyph-name="Wgrave" unicode="&#x1e80;" horiz-adv-x="552" 
d="M275 830l44 -89h-73l-74 89h103zM102 0l-85 700h108l50 -494l54 494h103l54 -493l50 493h98l-85 -700h-126l-47 419l-47 -419h-127z" />
    <glyph glyph-name="wgrave" unicode="&#x1e81;" horiz-adv-x="483" 
d="M94 0l-82 549h100l39 -355l48 355h91l48 -354l39 354h94l-82 -549h-103l-43 319l-46 -319h-103zM247 699l37 -110h-71l-67 110h101z" />
    <glyph glyph-name="Wacute" unicode="&#x1e82;" horiz-adv-x="552" 
d="M243 741l43 89h101l-73 -89h-71zM102 0l-85 700h108l50 -494l54 494h103l54 -493l50 493h98l-85 -700h-126l-47 419l-47 -419h-127z" />
    <glyph glyph-name="wacute" unicode="&#x1e83;" horiz-adv-x="483" 
d="M209 589l37 110h101l-67 -110h-71zM94 0l-82 549h100l39 -355l48 355h91l48 -354l39 354h94l-82 -549h-103l-43 319l-46 -319h-103z" />
    <glyph glyph-name="Wdieresis" unicode="&#x1e84;" horiz-adv-x="552" 
d="M300 741v82h85v-82h-85zM260 823v-82h-85v82h85zM102 0l-85 700h108l50 -494l54 494h103l54 -493l50 493h98l-85 -700h-126l-47 419l-47 -419h-127z" />
    <glyph glyph-name="wdieresis" unicode="&#x1e85;" horiz-adv-x="483" 
d="M267 589v103h83v-103h-83zM227 692v-103h-83v103h83zM94 0l-82 549h100l39 -355l48 355h91l48 -354l39 354h94l-82 -549h-103l-43 319l-46 -319h-103z" />
    <glyph glyph-name="Ygrave" unicode="&#x1ef2;" horiz-adv-x="345" 
d="M175 405l63 295h103l-115 -455v-245h-107v240l-115 460h110zM169 830l44 -89h-73l-74 89h103z" />
    <glyph glyph-name="ygrave" unicode="&#x1ef3;" horiz-adv-x="327" 
d="M181 -110h-97l29 131l-104 528h101l53 -334l59 334h97zM165 699l37 -110h-71l-67 110h101z" />
    <glyph glyph-name="enspace" unicode="&#x2002;" 
 />
    <glyph glyph-name="emspace" unicode="&#x2003;" horiz-adv-x="1000" 
 />
    <glyph glyph-name="threeperemspace" unicode="&#x2004;" horiz-adv-x="333" 
 />
    <glyph glyph-name="fourperemspace" unicode="&#x2005;" horiz-adv-x="250" 
 />
    <glyph glyph-name="thinspace" unicode="&#x2009;" horiz-adv-x="133" 
 />
    <glyph glyph-name="hairspace" unicode="&#x200a;" horiz-adv-x="75" 
 />
    <glyph glyph-name="endash" unicode="&#x2013;" horiz-adv-x="373" 
d="M13 323h347v-77h-347v77z" />
    <glyph glyph-name="emdash" unicode="&#x2014;" horiz-adv-x="572" 
d="M13 323h537v-77h-537v77z" />
    <glyph glyph-name="quoteleft" unicode="&#x2018;" horiz-adv-x="150" 
d="M24 456v91q0 43 6.5 64t30.5 59l24 36l41 -12l-13 -29q-22 -49 -25 -76h37v-133h-101z" />
    <glyph glyph-name="quoteright" unicode="&#x2019;" horiz-adv-x="150" 
d="M126 700v-91q0 -43 -6.5 -64.5t-31.5 -58.5l-23 -36l-41 11l13 30q21 47 25 76h-37v133h101z" />
    <glyph glyph-name="quotesinglbase" unicode="&#x201a;" horiz-adv-x="150" 
d="M126 134v-91q0 -43 -6.5 -64.5t-31.5 -58.5l-23 -36l-41 11l13 30q21 49 25 76h-37v133h101z" />
    <glyph glyph-name="quotedblleft" unicode="&#x201c;" horiz-adv-x="286" 
d="M162 456v91q0 43 6 64.5t30 58.5l24 36l40 -12l-13 -29q-21 -49 -25 -76h37v-133h-99zM24 456v91q0 43 6 64.5t30 58.5l24 36l40 -12l-13 -29q-21 -49 -25 -76h37v-133h-99z" />
    <glyph glyph-name="quotedblright" unicode="&#x201d;" horiz-adv-x="286" 
d="M262 700v-91q0 -44 -6.5 -65.5t-30.5 -57.5l-23 -36l-40 11l12 30q23 51 25 76h-36v133h99zM124 700v-91q0 -44 -6.5 -65.5t-30.5 -57.5l-23 -36l-40 11l13 30q21 47 25 76h-37v133h99z" />
    <glyph glyph-name="quotedblbase" unicode="&#x201e;" horiz-adv-x="286" 
d="M262 134v-91q0 -44 -6.5 -65.5t-30.5 -57.5l-23 -36l-40 11l12 30q23 53 25 76h-36v133h99zM124 134v-91q0 -44 -6.5 -65.5t-30.5 -57.5l-23 -36l-40 11l13 30q21 49 25 76h-37v133h99z" />
    <glyph glyph-name="dagger" unicode="&#x2020;" horiz-adv-x="236" 
d="M87 348l2 214l-79 -3v62l79 -4l-2 85h62l-2 -85l79 4v-62l-80 3l3 -214h-62z" />
    <glyph glyph-name="daggerdbl" unicode="&#x2021;" horiz-adv-x="236" 
d="M226 621v-62l-80 3l2 -110l-2 -110l80 4v-62l-79 3l2 -84h-62l2 84l-79 -3v62l79 -4l-1 110l1 110l-79 -3v62l79 -4l-2 85h62l-2 -85z" />
    <glyph glyph-name="bullet" unicode="&#x2022;" horiz-adv-x="238" 
d="M196 395v-86q0 -56 -62 -56h-30q-62 0 -62 56v86q0 56 62 56h30q62 0 62 -56z" />
    <glyph glyph-name="ellipsis" unicode="&#x2026;" horiz-adv-x="452" 
d="M126 133v-133h-101v133h101zM276 133v-133h-101v133h101zM427 133v-133h-101v133h101z" />
    <glyph glyph-name="guilsinglleft" unicode="&#x2039;" horiz-adv-x="175" 
d="M4 284l76 160h85l-64 -160l64 -159h-84z" />
    <glyph glyph-name="guilsinglright" unicode="&#x203a;" horiz-adv-x="175" 
d="M95 444l76 -160l-77 -159h-84l64 159l-64 160h85z" />
    <glyph glyph-name="Euro" unicode="&#x20ac;" horiz-adv-x="376" 
d="M16 437h37v139q0 130 130 130h41q129 0 129 -129v-92h-103v86q0 41 -40 41h-12q-39 0 -39 -41v-134h145v-62h-145v-41h145v-62h-145v-143q0 -41 39 -41h14q40 0 40 41v93h103v-98q0 -130 -130 -130h-42q-130 0 -130 130v148h-37v62h37v41h-37v62z" />
    <glyph glyph-name="published" unicode="&#x2117;" horiz-adv-x="493" 
d="M223 272v-178h-80v513h124q95 0 95 -91v-153q0 -91 -95 -91h-44zM282 505q0 27 -28 27h-31v-184h31q28 0 28 26v131zM459 542v-384q0 -87 -37.5 -125.5t-118.5 -38.5h-113q-81 0 -118.5 38.5t-37.5 125.5v384q0 87 37.5 125.5t118.5 38.5h113q81 0 118.5 -38.5
t37.5 -125.5zM433 158v384q0 74 -31.5 107t-98.5 33h-113q-67 0 -98.5 -33t-31.5 -107v-384q0 -74 31.5 -107t98.5 -33h113q67 0 98.5 33t31.5 107z" />
    <glyph glyph-name="servicemark" unicode="&#x2120;" horiz-adv-x="470" 
d="M290 700l32 -215l32 215h76v-305h-52v213l-35 -213h-49l-34 214v-214h-47v305h77zM88 509v-52q0 -18 19 -18h6q20 0 20 18v31q0 15 -14 25l-54 36q-31 22 -31 53v42q0 59 63 59h26q62 0 62 -59v-51h-52v45q0 18 -20 18h-6q-19 0 -19 -18v-23q0 -15 15 -25l54 -36
q29 -20 29 -53v-50q0 -59 -62 -59h-27q-63 0 -63 59v58h54z" />
    <glyph glyph-name="trademark" unicode="&#x2122;" horiz-adv-x="452" 
d="M272 700l33 -215l32 215h76v-305h-53v213l-34 -213h-50l-34 214v-214h-46v305h76zM125 395h-56v255h-49v50h154v-50h-49v-255z" />
    <glyph glyph-name="minus" unicode="&#x2212;" horiz-adv-x="314" 
d="M10 396h294v-81h-294v81z" />
    <glyph glyph-name="Q.alt" horiz-adv-x="377" 
d="M347 576v-436q0 -29 -6 -53l43 -28l-54 -68l-30 30q-33 -27 -91 -27h-49q-130 0 -130 130v452q0 130 130 130h57q130 0 130 -130zM240 571q0 41 -40 41h-22q-41 0 -41 -41v-444q0 -41 41 -41h22q19 0 27 7l-57 52l35 42l35 -28v412z" />
    <glyph glyph-name="a.alt" horiz-adv-x="347" 
d="M318 549v-549h-100v37q-45 -43 -95 -43h-1q-46 0 -70.5 27t-24.5 76v355q0 49 24.5 76t70.5 27h1q50 0 94 -40v34h101zM217 104v341q-25 18 -53 18q-36 0 -36 -34v-309q0 -34 36 -34q28 0 53 18z" />
    <glyph glyph-name="aacute.alt" horiz-adv-x="347" 
d="M143 589l37 110h101l-67 -110h-71zM318 549v-549h-100v37q-45 -43 -95 -43h-1q-46 0 -70.5 27t-24.5 76v355q0 49 24.5 76t70.5 27h1q50 0 94 -40v34h101zM217 104v341q-25 18 -53 18q-36 0 -36 -34v-309q0 -34 36 -34q28 0 53 18z" />
    <glyph glyph-name="abreve.alt" horiz-adv-x="347" 
d="M318 549v-549h-100v37q-45 -43 -95 -43h-1q-46 0 -70.5 27t-24.5 76v355q0 49 24.5 76t70.5 27h1q50 0 94 -40v34h101zM217 104v341q-25 18 -53 18q-36 0 -36 -34v-309q0 -34 36 -34q28 0 53 18zM82 672v27h66v-25q0 -27 28 -27h8q28 0 28 27v25h66v-27q0 -86 -83 -86
h-30q-83 0 -83 86z" />
    <glyph glyph-name="acircumflex.alt" horiz-adv-x="347" 
d="M221 699l66 -110h-66l-41 49l-41 -49h-66l66 110h82zM318 549v-549h-100v37q-45 -43 -95 -43h-1q-46 0 -70.5 27t-24.5 76v355q0 49 24.5 76t70.5 27h1q50 0 94 -40v34h101zM217 104v341q-25 18 -53 18q-36 0 -36 -34v-309q0 -34 36 -34q28 0 53 18z" />
    <glyph glyph-name="adieresis.alt" horiz-adv-x="347" 
d="M200 589v103h83v-103h-83zM160 692v-103h-83v103h83zM318 549v-549h-100v37q-45 -43 -95 -43h-1q-46 0 -70.5 27t-24.5 76v355q0 49 24.5 76t70.5 27h1q50 0 94 -40v34h101zM217 104v341q-25 18 -53 18q-36 0 -36 -34v-309q0 -34 36 -34q28 0 53 18z" />
    <glyph glyph-name="agrave.alt" horiz-adv-x="347" 
d="M318 549v-549h-100v37q-45 -43 -95 -43h-1q-46 0 -70.5 27t-24.5 76v355q0 49 24.5 76t70.5 27h1q50 0 94 -40v34h101zM217 104v341q-25 18 -53 18q-36 0 -36 -34v-309q0 -34 36 -34q28 0 53 18zM180 699l37 -110h-71l-67 110h101z" />
    <glyph glyph-name="amacron.alt" horiz-adv-x="347" 
d="M318 549v-549h-100v37q-45 -43 -95 -43h-1q-46 0 -70.5 27t-24.5 76v355q0 49 24.5 76t70.5 27h1q50 0 94 -40v34h101zM217 104v341q-25 18 -53 18q-36 0 -36 -34v-309q0 -34 36 -34q28 0 53 18zM74 672h212v-76h-212v76z" />
    <glyph glyph-name="aogonek.alt" horiz-adv-x="347" 
d="M318 549v-549h-13l-8 -14q-10 -17 -10 -27q0 -9 10 -9h27v-56h-53q-53 0 -53 46v6q0 21 20 52l1 2h-21v37q-45 -43 -95 -43h-1q-46 0 -70.5 27t-24.5 76v355q0 49 24.5 76t70.5 27h1q50 0 94 -40v34h101zM217 104v341q-25 18 -53 18q-36 0 -36 -34v-309q0 -34 36 -34
q28 0 53 18z" />
    <glyph glyph-name="aring.alt" horiz-adv-x="347" 
d="M266 647v-6q0 -55 -65 -55h-42q-65 0 -65 55v6q0 55 65 55h42q65 0 65 -55zM241 641v6q0 33 -42 33h-38q-42 0 -42 -33v-6q0 -33 43 -33h37q42 0 42 33zM318 549v-549h-100v37q-45 -43 -95 -43h-1q-46 0 -70.5 27t-24.5 76v355q0 49 24.5 76t70.5 27h1q50 0 94 -40v34
h101zM217 104v341q-25 18 -53 18q-36 0 -36 -34v-309q0 -34 36 -34q28 0 53 18z" />
    <glyph glyph-name="aringacute.alt" horiz-adv-x="347" 
d="M144 730l37 110h101l-67 -110h-71zM263 647v-6q0 -55 -65 -55h-42q-65 0 -65 55v6q0 55 65 55h42q65 0 65 -55zM238 641v6q0 33 -42 33h-38q-42 0 -42 -33v-6q0 -33 43 -33h37q42 0 42 33zM318 549v-549h-100v37q-45 -43 -95 -43h-1q-46 0 -70.5 27t-24.5 76v355
q0 49 24.5 76t70.5 27h1q50 0 94 -40v34h101zM217 104v341q-25 18 -53 18q-36 0 -36 -34v-309q0 -34 36 -34q28 0 53 18z" />
    <glyph glyph-name="atilde.alt" horiz-adv-x="347" 
d="M318 549v-549h-100v37q-45 -43 -95 -43h-1q-46 0 -70.5 27t-24.5 76v355q0 49 24.5 76t70.5 27h1q50 0 94 -40v34h101zM217 104v341q-25 18 -53 18q-36 0 -36 -34v-309q0 -34 36 -34q28 0 53 18zM117 699h8q27 0 48 -15l27 -19q15 -11 22 -11q10 0 10 12v33h59v-59
q0 -51 -48 -51h-8q-26 0 -47 15l-28 20q-16 10 -22 10q-10 0 -10 -12v-33h-59v59q0 51 48 51z" />
    <glyph glyph-name="Oslash.alt" horiz-adv-x="377" 
d="M347 124q0 -130 -130 -130h-52q-27 0 -57 7l-10 -33h-71l24 75q-21 30 -21 81v452q0 130 130 130h53q29 0 55 -8l11 34h71l-24 -75q21 -30 21 -81v-452zM241 129l1 333l-99 -360q11 -14 35 -14h21q42 0 42 41zM137 571l-3 -335l100 361q-9 15 -34 15h-22q-41 0 -41 -41z
" />
    <glyph glyph-name="oslash.alt" horiz-adv-x="344" 
d="M196 -6h-44q-28 0 -51 6l-10 -32h-64l22 67q-22 29 -22 81v317q0 122 122 122h43q29 0 50 -7l11 33h65l-23 -67q23 -31 23 -81v-317q0 -122 -122 -122zM180 85q37 0 37 37l2 242l-84 -270q9 -9 29 -9h16zM180 464h-16q-37 0 -37 -37l-1 -241l82 268q-9 10 -28 10z" />
    <glyph glyph-name="Oslashacute.alt" horiz-adv-x="377" 
d="M347 124q0 -130 -130 -130h-52q-27 0 -57 7l-10 -33h-71l24 75q-21 30 -21 81v452q0 130 130 130h53q29 0 55 -8l11 34h71l-24 -75q21 -30 21 -81v-452zM241 129l1 333l-99 -360q11 -14 35 -14h21q42 0 42 41zM137 571l-3 -335l100 361q-9 15 -34 15h-22q-41 0 -41 -41z
M152 741l43 89h101l-73 -89h-71z" />
    <glyph glyph-name="oslashacute.alt" horiz-adv-x="344" 
d="M196 -6h-44q-28 0 -51 6l-10 -32h-64l22 67q-22 29 -22 81v317q0 122 122 122h43q29 0 50 -7l11 33h65l-23 -67q23 -31 23 -81v-317q0 -122 -122 -122zM180 85q37 0 37 37l2 242l-84 -270q9 -9 29 -9h16zM180 464h-16q-37 0 -37 -37l-1 -241l82 268q-9 10 -28 10z
M136 589l37 110h101l-67 -110h-71z" />
    <glyph glyph-name="colon.alt" horiz-adv-x="151" 
d="M126 288v-133h-101v133h101zM126 548v-133h-101v133h101z" />
    <glyph glyph-name="ampersand.alt" horiz-adv-x="370" 
d="M363 310h-31v-186q0 -130 -130 -130h-43q-130 0 -130 130v148q0 73 60 90q-58 22 -58 104v110q0 130 130 130h40q129 0 129 -129v-104h-102v98q0 41 -40 41h-12q-39 0 -39 -41v-129q0 -41 39 -41h187v-91zM135 270v-141q0 -41 40 -41h14q41 0 41 41v181h-56
q-39 0 -39 -40z" />
    <glyph glyph-name="registered.alt" horiz-adv-x="493" 
d="M319 329q25 -7 35.5 -22t10.5 -43v-170h-80v164q0 31 -33 31h-33v-195h-80v513h130q95 0 95 -91v-112q0 -58 -45 -75zM284 504q0 27 -28 27h-37v-168h33q32 0 32 31v110zM459 542v-384q0 -87 -37.5 -125.5t-118.5 -38.5h-113q-81 0 -118.5 38.5t-37.5 125.5v384
q0 87 37.5 125.5t118.5 38.5h113q81 0 118.5 -38.5t37.5 -125.5zM433 158v384q0 74 -31.5 107t-98.5 33h-113q-67 0 -98.5 -33t-31.5 -107v-384q0 -74 31.5 -107t98.5 -33h113q67 0 98.5 33t31.5 107z" />
    <glyph glyph-name="hfjslug" horiz-adv-x="694" 
d="M644 -200h-208l-8 14h-163l-8 -14h-207v303q14 0 23 9.5t9 22.5t-9.5 22.5t-22.5 9.5v554h100l30 79h334l29 -79h101v-921zM400 563v-172h15v78h38v14h-38v66h43v14h-58zM184 563v-172h15v79h47v-79h15v172h-15v-79h-47v79h-15zM460 394q10 -4 21 -4q31 0 31 36v137h-16
v-137q0 -22 -16 -22q-8 0 -20 5v-15zM371 465l-13 3q-4 -18 -8 -30h-1l-16 31q23 21 23 42q0 31 -27 31q-12 0 -20 -9t-8 -22t14 -39q-23 -18 -23 -47q0 -16 8 -26.5t21 -10.5q19 0 29 24h1l12 -24l12 6l-17 32q6 14 13 39zM523 323v-46h8v12l8 8l15 -20h10l-20 26l18 20
h-10l-20 -24h-1v24h-8zM488 292l10 -15h9l-12 17q10 4 10 14q0 15 -17 15h-20v-46h8v15h12zM426 276q10 0 17 7t7 17q0 9 -7 16.5t-17 7.5t-17 -7.5t-7 -16.5q0 -10 7 -17t17 -7zM370 301l-13 22h-9l18 -29v-17h8v17l18 29h-9zM193 323v-46h34v7h-26v13h23v7h-23v12h26v7
h-34zM132 323v-46h8v32l25 -32h7v46h-8v-32l-25 32h-7zM241 323l14 -47h8l11 34h1l11 -34h8l14 47h-8l-10 -35h-1l-11 35h-7l-11 -35h-1l-10 35h-8zM327 479q-12 22 -12 32q0 19 14 19q13 0 13 -19q0 -15 -15 -32zM342 423q-8 -21 -20 -21q-16 0 -16 25q0 19 16 35zM487 299
h-11v17h11q10 0 10 -8q0 -9 -10 -9zM426 283q-16 0 -16 17q0 6 4.5 11.5t11.5 5.5t11.5 -5.5t4.5 -11.5q0 -17 -16 -17z" />
    <glyph glyph-name="caron.alt" 
d="M196 588v122h72l-30 -122h-42z" />
    <glyph glyph-name="acute.cap" 
d="M188 741l43 89h101l-73 -89h-71z" />
    <glyph glyph-name="hungarumlaut.cap" 
d="M154 741l37 89h88l-72 -89h-53zM245 741l37 89h89l-72 -89h-54z" />
    <glyph glyph-name="grave.cap" 
d="M289 830l44 -89h-73l-74 89h103z" />
    <glyph glyph-name="circumflex.cap" 
d="M291 838l70 -97h-66l-45 39l-45 -39h-66l70 97h82z" />
    <glyph glyph-name="caron.cap" 
d="M361 838l-70 -97h-82l-70 97h66l45 -40l45 40h66z" />
    <glyph glyph-name="breve.cap" 
d="M150 816v18h66v-12q0 -24 28 -24h12q28 0 28 24v12h66v-18q0 -78 -83 -78h-34q-83 0 -83 78z" />
    <glyph glyph-name="tilde.cap" 
d="M185 840h9q26 0 47 -12l31 -19q13 -7 22 -7q10 0 10 12v26h59v-49q0 -50 -48 -50h-9q-27 0 -46 12l-32 18q-13 7 -22 7q-10 0 -10 -12v-25h-59v48q0 51 48 51z" />
    <glyph glyph-name="macron.cap" 
d="M144 813h212v-65h-212v65z" />
    <glyph glyph-name="dieresis.cap" 
d="M270 741v82h85v-82h-85zM230 823v-82h-85v82h85z" />
    <glyph glyph-name="dotaccent.cap" 
d="M295 819v-78h-90v78h90z" />
    <glyph glyph-name="ring.cap" 
d="M351 796v-5q0 -53 -65 -53h-72q-65 0 -65 53v5q0 53 65 53h72q65 0 65 -53zM325 791v4q0 31 -41 31h-68q-41 0 -41 -31v-4q0 -31 41 -31h68q41 0 41 31z" />
    <glyph glyph-name="guillemotleft.cap" horiz-adv-x="262" 
d="M4 356l65 169h75l-54 -169l54 -169h-74zM121 356l57 169h75l-46 -169l46 -169h-73z" />
    <glyph glyph-name="guillemotright.cap" horiz-adv-x="262" 
d="M193 525l65 -169l-66 -169h-74l54 169l-54 169h75zM84 525l57 -169l-59 -169h-73l46 169l-46 169h75z" />
    <glyph glyph-name="guilsinglleft.cap" horiz-adv-x="177" 
d="M4 356l80 169h85l-68 -169l68 -169h-84z" />
    <glyph glyph-name="guilsinglright.cap" horiz-adv-x="177" 
d="M93 525l80 -169l-81 -169h-84l68 169l-68 169h85z" />
    <glyph glyph-name="hyphen.cap" horiz-adv-x="219" 
d="M13 404h192v-96h-192v96z" />
    <glyph glyph-name="endash.cap" horiz-adv-x="373" 
d="M13 395h347v-78h-347v78z" />
    <glyph glyph-name="emdash.cap" horiz-adv-x="572" 
d="M13 395h537v-78h-537v78z" />
    <glyph glyph-name="i.dot" horiz-adv-x="164" 
d="M29 595v98h105v-98h-105zM31 0v549h101v-549h-101z" />
    <glyph glyph-name="NUL" horiz-adv-x="0" 
 />
    </font>
</defs>
</svg>
